<?xml version="1.0" encoding="utf-8"?>
<!-- Generator: Adobe Illustrator 14.0.0, SVG Export Plug-In . SVG Version: 6.00 Build 43363)  -->
<!DOCTYPE svg PUBLIC "-//W3C//DTD SVG 1.1//EN" "http://www.w3.org/Graphics/SVG/1.1/DTD/svg11.dtd">
<svg version="1.1" id="Calque_1" xmlns="http://www.w3.org/2000/svg" xmlns:xlink="http://www.w3.org/1999/xlink" x="0px" y="0px"
	 width="342.957px" height="79.99px" viewBox="0 0 342.957 79.99" enable-background="new 0 0 342.957 79.99" xml:space="preserve">
<g>
	<g>
		<path fill-rule="evenodd" clip-rule="evenodd" fill="#FDFDFD" d="M7.999,3c106.655-1.667,220.304-1.667,326.959,0
			C225.974,3,116.984,3,7.999,3z"/>
		<path fill-rule="evenodd" clip-rule="evenodd" fill="#8AACD4" d="M5.999,5.999c0-0.667,0-1.333,0-2C116.317,4,226.64,4,336.958,4
			c0,0.667,0,1.333,0,2c0,0.667,0,1.333,0,2c-0.333,0-0.667,0-1,0c-0.113-1.317,0.115-2.654-1-3c-9.188-2.845-27.144,0-40.995,0
			C197.93,5,98.044,5,6.999,5c0,1,0,2,0,3c-0.333,0-0.667,0-1,0C5.999,7.333,5.999,6.666,5.999,5.999z"/>
		<path fill-rule="evenodd" clip-rule="evenodd" fill="#E2EDFF" d="M7.999,8.999c0-1,0-2,0-3c108.653,0.667,219.973-1.333,326.959,1
			c0,0.667,0,1.333,0,2C225.973,8.999,116.983,8.999,7.999,8.999z"/>
		<path fill-rule="evenodd" clip-rule="evenodd" fill="#C1D5F2" d="M6.999,8.999c0.333,0,0.667,0,1,0c0,0.667,0,1.333,0,2
			c0,1,0,2,0,3c0,0.667,0,1.333,0,2c-0.333,0-0.667,0-1,0C6.999,13.665,6.999,11.332,6.999,8.999z"/>
		<path fill-rule="evenodd" clip-rule="evenodd" fill="#E0EBFF" d="M7.999,8.999c108.984,0,217.974,0,326.959,0c0,0.667,0,1.333,0,2
			c-108.985,0-217.975,0-326.959,0C7.999,10.332,7.999,9.666,7.999,8.999z"/>
		<path fill-rule="evenodd" clip-rule="evenodd" fill="#C1D5F2" d="M334.958,8.999c0.333,0,0.667,0,1,0c0,2.333,0,4.666,0,6.999
			c-0.333,0-0.667,0-1,0c0-0.667,0-1.333,0-2c0-1,0-2,0-3C334.958,10.332,334.958,9.666,334.958,8.999z"/>
		<path fill-rule="evenodd" clip-rule="evenodd" fill="#DEE9FF" d="M7.999,10.999c108.984,0,217.974,0,326.959,0c0,1,0,2,0,3
			c-108.985,0-217.975,0-326.959,0C7.999,12.999,7.999,11.999,7.999,10.999z"/>
		<path fill-rule="evenodd" clip-rule="evenodd" fill="#DCE8FF" d="M7.999,13.998c108.984,0,217.974,0,326.959,0
			c0,0.667,0,1.333,0,2c-108.985,0-217.975,0-326.959,0C7.999,15.332,7.999,14.665,7.999,13.998z"/>
		<path fill-rule="evenodd" clip-rule="evenodd" fill="#BDD1F2" d="M6.999,15.998c0.333,0,0.667,0,1,0c0,0.667,0,1.333,0,2
			c0,0.333,0,0.667,0,1c0,0.667,0,1.333,0,2c0,0.333,0,0.667,0,1c-0.333,0-0.667,0-1,0C6.999,19.998,6.999,17.998,6.999,15.998z"/>
		<path fill-rule="evenodd" clip-rule="evenodd" fill="#DBE7FF" d="M7.999,15.998c108.984,0,217.974,0,326.959,0
			c0,0.667,0,1.333,0,2c-108.985,0-217.975,0-326.959,0C7.999,17.331,7.999,16.665,7.999,15.998z"/>
		<path fill-rule="evenodd" clip-rule="evenodd" fill="#BDD1F2" d="M334.958,15.998c0.333,0,0.667,0,1,0c0,2,0,4,0,5.999
			c-0.333,0-0.667,0-1,0c0-0.333,0-0.667,0-1c0-0.667,0-1.333,0-2c0-0.333,0-0.667,0-1
			C334.958,17.331,334.958,16.665,334.958,15.998z"/>
		<path fill-rule="evenodd" clip-rule="evenodd" fill="#D9E6FF" d="M7.999,18.998c0-0.333,0-0.667,0-1
			c108.984,0,217.974,0,326.959,0c0,0.333,0,0.667,0,1C225.973,18.998,116.983,18.998,7.999,18.998z"/>
		<path fill-rule="evenodd" clip-rule="evenodd" fill="#D8E5FF" d="M7.999,18.998c108.984,0,217.974,0,326.959,0
			c0,0.667,0,1.333,0,2c-108.985,0-217.975,0-326.959,0C7.999,20.331,7.999,19.664,7.999,18.998z"/>
		<path fill-rule="evenodd" clip-rule="evenodd" fill="#D6E4FF" d="M7.999,21.997c0-0.333,0-0.667,0-1
			c108.984,0,217.974,0,326.959,0c0,0.333,0,0.667,0,1C225.973,21.997,116.983,21.997,7.999,21.997z"/>
		<path fill-rule="evenodd" clip-rule="evenodd" fill="#B9CFF2" d="M6.999,21.997c0.333,0,0.667,0,1,0c0,1.333,0,2.667,0,4
			c0,1,0,2,0,3c-0.333,0-0.667,0-1,0C6.999,26.663,6.999,24.33,6.999,21.997z"/>
		<path fill-rule="evenodd" clip-rule="evenodd" fill="#D4E3FF" d="M7.999,21.997c108.984,0,217.974,0,326.959,0
			c0,1.333,0,2.667,0,4c-108.985,0-217.975,0-326.959,0C7.999,24.664,7.999,23.331,7.999,21.997z"/>
		<path fill-rule="evenodd" clip-rule="evenodd" fill="#B9CFF2" d="M334.958,21.997c0.333,0,0.667,0,1,0c0,2.333,0,4.666,0,7
			c-0.333,0-0.667,0-1,0c0-1,0-2,0-3C334.958,24.664,334.958,23.331,334.958,21.997z"/>
		<path fill-rule="evenodd" clip-rule="evenodd" fill="#D1E1FF" d="M7.999,25.997c108.984,0,217.974,0,326.959,0c0,1,0,2,0,3
			c-108.985,0-217.975,0-326.959,0C7.999,27.997,7.999,26.997,7.999,25.997z"/>
		<path fill-rule="evenodd" clip-rule="evenodd" fill="#B3CBF2" d="M6.999,28.997c0.333,0,0.667,0,1,0c0,0.333,0,0.667,0,1
			c0,1,0,2,0,3c0,0.667,0,1.333,0,2s0,1.333,0,2c-0.333,0-0.667,0-1,0C6.999,34.329,6.999,31.663,6.999,28.997z"/>
		<path fill-rule="evenodd" clip-rule="evenodd" fill="#CFE0FF" d="M7.999,29.996c0-0.333,0-0.667,0-1
			c108.984,0,217.974,0,326.959,0c0,0.333,0,0.667,0,1C225.973,29.996,116.983,29.996,7.999,29.996z"/>
		<path fill-rule="evenodd" clip-rule="evenodd" fill="#B3CBF2" d="M334.958,29.996c0-0.333,0-0.667,0-1c0.333,0,0.667,0,1,0
			c0,2.666,0,5.333,0,7.999c-0.333,0-0.667,0-1,0c0-0.667,0-1.333,0-2s0-1.333,0-2C334.958,31.996,334.958,30.996,334.958,29.996z"
			/>
		<path fill-rule="evenodd" clip-rule="evenodd" fill="#CDDFFF" d="M7.999,29.996c108.984,0,217.974,0,326.959,0c0,1,0,2,0,3
			c-108.985,0-217.975,0-326.959,0C7.999,31.996,7.999,30.996,7.999,29.996z"/>
		<path fill-rule="evenodd" clip-rule="evenodd" fill="#CBDDFF" d="M7.999,32.996c108.984,0,217.974,0,326.959,0
			c0,0.667,0,1.333,0,2c-108.985,0-217.975,0-326.959,0C7.999,34.329,7.999,33.663,7.999,32.996z"/>
		<path fill-rule="evenodd" clip-rule="evenodd" fill="#CADCFF" d="M7.999,34.996c108.984,0,217.974,0,326.959,0
			c0,0.667,0,1.333,0,2c-108.985,0-217.975,0-326.959,0C7.999,36.329,7.999,35.662,7.999,34.996z"/>
		<path fill-rule="evenodd" clip-rule="evenodd" fill="#AFC8F1" d="M6.999,36.995c0.333,0,0.667,0,1,0c0,1,0,2,0,3s0,2,0,2.999
			c-0.333,0-0.667,0-1,0C6.999,40.995,6.999,38.995,6.999,36.995z"/>
		<path fill-rule="evenodd" clip-rule="evenodd" fill="#C8DBFF" d="M7.999,36.995c108.984,0,217.974,0,326.959,0c0,1,0,2,0,3
			c-108.985,0-217.975,0-326.959,0C7.999,38.995,7.999,37.995,7.999,36.995z"/>
		<path fill-rule="evenodd" clip-rule="evenodd" fill="#AFC8F1" d="M334.958,36.995c0.333,0,0.667,0,1,0c0,2,0,4,0,5.999
			c-0.333,0-0.667,0-1,0c0-0.999,0-1.999,0-2.999S334.958,37.995,334.958,36.995z"/>
		<path fill-rule="evenodd" clip-rule="evenodd" fill="#C5D9FF" d="M7.999,39.995c108.984,0,217.974,0,326.959,0c0,1,0,2,0,2.999
			c-108.985,0-217.975,0-326.959,0C7.999,41.995,7.999,40.995,7.999,39.995z"/>
		<path fill-rule="evenodd" clip-rule="evenodd" fill="#A9C5F2" d="M6.999,42.994c0.333,0,0.667,0,1,0c0,1.334,0,2.667,0,4
			c0,1,0,2,0,3c-0.333,0-0.667,0-1,0C6.999,47.661,6.999,45.328,6.999,42.994z"/>
		<path fill-rule="evenodd" clip-rule="evenodd" fill="#C2D7FF" d="M7.999,42.994c108.984,0,217.974,0,326.959,0
			c0,1.334,0,2.667,0,4c-108.985,0-217.975,0-326.959,0C7.999,45.661,7.999,44.328,7.999,42.994z"/>
		<path fill-rule="evenodd" clip-rule="evenodd" fill="#A9C5F2" d="M334.958,42.994c0.333,0,0.667,0,1,0c0,2.334,0,4.667,0,7
			c-0.333,0-0.667,0-1,0c0-1,0-2,0-3C334.958,45.661,334.958,44.328,334.958,42.994z"/>
		<path fill-rule="evenodd" clip-rule="evenodd" fill="#BED4FF" d="M7.999,46.994c108.984,0,217.974,0,326.959,0c0,1,0,2,0,3
			c-108.985,0-217.975,0-326.959,0C7.999,48.994,7.999,47.994,7.999,46.994z"/>
		<path fill-rule="evenodd" clip-rule="evenodd" fill="#A5C2F2" d="M6.999,49.994c0.333,0,0.667,0,1,0c0,0.333,0,0.666,0,0.999
			c0,1,0,2,0,3c0,0.333,0,0.667,0,1c-0.333,0-0.667,0-1,0C6.999,53.326,6.999,51.66,6.999,49.994z"/>
		<path fill-rule="evenodd" clip-rule="evenodd" fill="#BCD3FF" d="M7.999,50.993c0-0.333,0-0.666,0-0.999
			c108.984,0,217.974,0,326.959,0c0,0.333,0,0.666,0,0.999C225.973,50.993,116.983,50.993,7.999,50.993z"/>
		<path fill-rule="evenodd" clip-rule="evenodd" fill="#A5C2F2" d="M334.958,50.993c0-0.333,0-0.666,0-0.999c0.333,0,0.667,0,1,0
			c0,1.666,0,3.332,0,4.999c-0.333,0-0.667,0-1,0c0-0.333,0-0.667,0-1C334.958,52.993,334.958,51.993,334.958,50.993z"/>
		<path fill-rule="evenodd" clip-rule="evenodd" fill="#BAD2FF" d="M7.999,50.993c108.984,0,217.974,0,326.959,0c0,1,0,2,0,3
			c-108.985,0-217.975,0-326.959,0C7.999,52.993,7.999,51.993,7.999,50.993z"/>
		<path fill-rule="evenodd" clip-rule="evenodd" fill="#B7D0FF" d="M7.999,54.993c0-0.333,0-0.667,0-1
			c108.984,0,217.974,0,326.959,0c0,0.333,0,0.667,0,1C225.973,54.993,116.983,54.993,7.999,54.993z"/>
		<path fill-rule="evenodd" clip-rule="evenodd" fill="#9EBEF2" d="M6.999,54.993c0.333,0,0.667,0,1,0c0,1,0,2,0,3
			c0,0.999,0,1.999,0,2.999s0,2,0,3c0,0.333,0,0.666,0,1c-0.333,0-0.667,0-1,0C6.999,61.659,6.999,58.326,6.999,54.993z"/>
		<path fill-rule="evenodd" clip-rule="evenodd" fill="#B5CFFF" d="M7.999,54.993c108.984,0,217.974,0,326.959,0c0,1,0,2,0,3
			c-108.985,0-217.975,0-326.959,0C7.999,56.993,7.999,55.993,7.999,54.993z"/>
		<path fill-rule="evenodd" clip-rule="evenodd" fill="#9EBEF2" d="M334.958,54.993c0.333,0,0.667,0,1,0c0,3.333,0,6.666,0,9.999
			c-0.333,0-0.667,0-1,0c0-0.334,0-0.667,0-1c0-1,0-2,0-3s0-2,0-2.999C334.958,56.993,334.958,55.993,334.958,54.993z"/>
		<path fill-rule="evenodd" clip-rule="evenodd" fill="#B1CDFF" d="M7.999,57.993c108.984,0,217.974,0,326.959,0
			c0,0.999,0,1.999,0,2.999c-108.985,0-217.975,0-326.959,0C7.999,59.992,7.999,58.992,7.999,57.993z"/>
		<path fill-rule="evenodd" clip-rule="evenodd" fill="#AECAFF" d="M7.999,60.992c108.984,0,217.974,0,326.959,0c0,1,0,2,0,3
			c-108.985,0-217.975,0-326.959,0C7.999,62.992,7.999,61.992,7.999,60.992z"/>
		<path fill-rule="evenodd" clip-rule="evenodd" fill="#AAC8FF" d="M7.999,64.992c0-0.334,0-0.667,0-1
			c108.984,0,217.974,0,326.959,0c0,0.333,0,0.666,0,1c0,0.666,0,1.333,0,1.999c-108.985,0-217.975,0-326.959,0
			C7.999,66.325,7.999,65.658,7.999,64.992z"/>
		<path fill-rule="evenodd" clip-rule="evenodd" fill="#A8C7FF" d="M7.999,67.991c0-0.333,0-0.666,0-1
			c108.984,0,217.974,0,326.959,0c0,0.334,0,0.667,0,1C225.973,67.991,116.983,67.991,7.999,67.991z"/>
		<path fill-rule="evenodd" clip-rule="evenodd" fill="#A6C6FF" d="M7.999,67.991c108.984,0,217.974,0,326.959,0
			c-6.971,3.539-26.1,2-39.995,2c-93.24,0-200.386,0-286.964,0C7.999,69.324,7.999,68.658,7.999,67.991z"/>
		<path fill-rule="evenodd" clip-rule="evenodd" fill="#6E94C5" d="M6.999,71.991c0.057-0.61,0.149-1.184,1-1
			c108.984,0,217.974,0,326.959,0c0.61,0.057,1.184,0.149,1,1C226.304,71.991,116.654,71.991,6.999,71.991z"/>
		<path fill-rule="evenodd" clip-rule="evenodd" fill="#9BA5B1" d="M335.958,71.991c-107.318,1.666-221.64,1.666-328.959,0
			C116.654,71.991,226.304,71.991,335.958,71.991z"/>
		<path fill-rule="evenodd" clip-rule="evenodd" fill="#EBEBEB" d="M7.999,75.99c0-0.333,0-0.666,0-1c108.984,0,217.974,0,326.959,0
			c0,0.334,0,0.667,0,1C225.973,75.99,116.983,75.99,7.999,75.99z"/>
		<path fill-rule="evenodd" clip-rule="evenodd" fill="#F8F8F8" d="M6.999,75.99c0.333,0,0.667,0,1,0c108.984,0,217.974,0,326.959,0
			c0.333,0,0.667,0,1,0C228.64,77.657,114.318,77.657,6.999,75.99z"/>
		<path fill-rule="evenodd" clip-rule="evenodd" fill="#FDFDFD" d="M336.958,4c6.343,1.94,3.999,23.182,3.999,37.996
			c0,13.704,1.243,27.671-1.999,34.995C229.635,78.656,113.323,78.656,4,76.99c-3.372-9.444-2-24.287-2-37.995
			C2,26.054-0.886,10.829,5.999,4c0,0.667,0,1.333,0,2c-0.85-0.184-0.943,0.39-1,1c-1.7,20.367-1.621,47.612,0,67.991
			c0.81,0.19,0.997,1.004,2,1c107.319,1.667,221.641,1.667,328.959,0c6.093-16.906,2.508-48.816,2-68.991
			c0.184-0.85-0.391-0.943-1-1C336.958,5.333,336.958,4.666,336.958,4z"/>
		<path fill-rule="evenodd" clip-rule="evenodd" fill="#C6D8F2" d="M6.999,7.999c0-1,0-2,0-3C98.044,5,197.93,5,293.963,5
			c13.852,0,31.808-2.845,40.995,0c1.115,0.345,0.887,1.682,1,3c0,0.333,0,0.667,0,1c-0.333,0-0.667,0-1,0c0-0.667,0-1.333,0-2
			c-106.986-2.333-218.306-0.333-326.959-1c0,1,0,2,0,3c-0.333,0-0.667,0-1,0C6.999,8.666,6.999,8.332,6.999,7.999z"/>
		<path fill-rule="evenodd" clip-rule="evenodd" fill="#93B7F2" d="M6.999,64.992c0.333,0,0.667,0,1,0c0,0.666,0,1.333,0,1.999
			c0,0.334,0,0.667,0,1c0,0.667,0,1.333,0,2c86.578,0,193.724,0,286.964,0c13.896,0,33.024,1.539,39.995-2c0-0.333,0-0.666,0-1
			c0-0.666,0-1.333,0-1.999c0.333,0,0.667,0,1,0c0.132,2.465,0.151,4.817-1,5.999c-108.985,0-217.975,0-326.959,0
			C6.848,69.81,6.867,67.457,6.999,64.992z"/>
		<path fill-rule="evenodd" clip-rule="evenodd" fill="#D6D6D6" d="M7.999,74.99c-1.44-0.56-2.44-1.56-3-2.999c0.333,0,0.667,0,1,0
			c89.593,3.637,192.647,2,288.964,2c14.632,0,33.682,1.546,41.995-2c0.333,0,0.666,0,1,0c-0.56,1.439-1.56,2.439-3,2.999
			C225.973,74.99,116.983,74.99,7.999,74.99z"/>
		<path fill-rule="evenodd" clip-rule="evenodd" fill="#BEBEBE" d="M336.958,71.991c-8.313,3.546-27.363,2-41.995,2
			c-96.316,0-199.371,1.637-288.964-2c0.333,0,0.667,0,1,0c107.319,1.666,221.641,1.666,328.959,0
			C336.291,71.991,336.625,71.991,336.958,71.991z"/>
		<path fill-rule="evenodd" clip-rule="evenodd" fill="#F0F0F0" d="M6.999,75.99c-1.003,0.004-1.19-0.81-2-1
			c-1.621-20.379-1.7-47.624,0-67.991c0,21.664,0,43.328,0,64.992c0.56,1.439,1.56,2.439,3,2.999c0,0.334,0,0.667,0,1
			C7.666,75.99,7.333,75.99,6.999,75.99z"/>
		<path fill-rule="evenodd" clip-rule="evenodd" fill="#F0F0F0" d="M337.958,6.999c0.508,20.175,4.093,52.085-2,68.991
			c-0.333,0-0.667,0-1,0c0-0.333,0-0.666,0-1c1.44-0.56,2.44-1.56,3-2.999C337.958,50.327,337.958,28.663,337.958,6.999z"/>
		<path fill-rule="evenodd" clip-rule="evenodd" fill="#FFFFFF" d="M1,0c113.984,0,227.974,0,341.957,0c0,26.663,0,53.327,0,79.99
			c-114.318,0-228.64,0-342.957,0C0,54.326,0,28.663,0,3C-0.086,1.581-0.165,0.168,1,0z M7.999,3c-0.776,0.224-1.972,0.028-2,1
			C-0.886,10.829,2,26.054,2,38.995C2,52.703,0.627,67.546,4,76.99c109.323,1.666,225.635,1.666,334.958,0
			c3.242-7.324,1.999-21.291,1.999-34.995c0-14.813,2.344-36.056-3.999-37.996c-0.221-0.779-0.837-1.163-2-1
			C228.303,1.333,114.654,1.333,7.999,3z"/>
		<path fill-rule="evenodd" clip-rule="evenodd" fill="#7EA1CE" d="M6.999,64.992c-0.132,2.465-0.151,4.817,1,5.999
			c-0.851-0.184-0.943,0.39-1,1c-0.333,0-0.667,0-1,0c0-21.331,0-42.662,0-63.992c0.333,0,0.667,0,1,0c0,0.333,0,0.667,0,1
			c0,2.333,0,4.666,0,6.999c0,2,0,4,0,5.999c0,2.333,0,4.666,0,7c0,2.666,0,5.333,0,7.999c0,2,0,4,0,5.999c0,2.334,0,4.667,0,7
			c0,1.666,0,3.332,0,4.999C6.999,58.326,6.999,61.659,6.999,64.992z"/>
		<path fill-rule="evenodd" clip-rule="evenodd" fill="#7EA1CE" d="M334.958,70.991c1.151-1.182,1.132-3.534,1-5.999
			c0-3.333,0-6.666,0-9.999c0-1.667,0-3.333,0-4.999c0-2.333,0-4.666,0-7c0-1.999,0-3.999,0-5.999c0-2.666,0-5.333,0-7.999
			c0-2.333,0-4.667,0-7c0-2,0-4,0-5.999c0-2.333,0-4.666,0-6.999c0-0.333,0-0.667,0-1c0.333,0,0.667,0,1,0
			c0,21.331,0,42.661,0,63.992c-0.333,0-0.667,0-1,0C336.142,71.141,335.568,71.048,334.958,70.991z"/>
		<path fill-rule="evenodd" clip-rule="evenodd" fill="#C4CEDA" d="M5.999,7.999c0,21.331,0,42.661,0,63.992c-0.333,0-0.667,0-1,0
			C5,50.327,5,28.663,5,6.999c0.057-0.61,0.149-1.184,1-1C5.999,6.666,5.999,7.333,5.999,7.999z"/>
		<path fill-rule="evenodd" clip-rule="evenodd" fill="#C4CEDA" d="M337.958,6.999c0,21.664,0,43.328,0,64.992c-0.334,0-0.667,0-1,0
			c0-21.331,0-42.662,0-63.992c0-0.667,0-1.333,0-2C337.567,6.056,338.142,6.149,337.958,6.999z"/>
		<path fill-rule="evenodd" clip-rule="evenodd" fill="#DBE4F0" d="M5.999,4c0.028-0.972,1.224-0.776,2-1
			c108.985,0,217.975,0,326.959,0c1.163-0.163,1.779,0.221,2,1C226.64,4,116.317,4,5.999,4z"/>
	</g>
</g>
<g>
	<g>
		<path fill="#B9B9B9" d="M324.672,11.016c0,0.21,0,0.419,0,0.629c-0.314,0-0.629,0-0.942,0c0-0.104,0-0.21,0-0.314
			C324.161,11.344,324.419,11.183,324.672,11.016z"/>
		<path fill="#C5C5C5" d="M327.5,14.473c0.032-0.353-0.457-0.489,0-0.629c0.21,0,0.419,0,0.628,0c0,0.21,0,0.419,0,0.629
			C327.919,14.473,327.71,14.473,327.5,14.473z"/>
		<path fill="#FEFEFE" d="M330.642,22.957c0.545-1.02,0.824,0.816,1.886,0.314c0.314,0,0.629,0,0.942,0c0,0.104,0,0.209,0,0.314
			C331.728,23.714,331.562,23.893,330.642,22.957z"/>
		<path fill="#C8C8C8" d="M321.215,10.388c0.093-0.641,0.851-0.616,0.942-1.257c0.105,0,0.21,0,0.314,0
			C322.188,9.685,321.769,10.104,321.215,10.388z"/>
		<path fill="#B8B8B8" d="M321.529,11.959c-0.052-0.994,0.835-1.051,0.628-2.2c0.342,0.078,0.213,0.625,0.629,0.629
			c0.434-0.404,0.084-0.649,0-1.571c0.21,0,0.419,0,0.629,0c0.018,0.191,0.047,0.372,0.314,0.314
			c0.213,0.729,1.044,0.841,1.257,1.57c0.058,0.269-0.122,0.297-0.314,0.314c-0.253,0.167-0.51,0.328-0.942,0.314
			c0.07-1.313-1.16-0.842-0.314,0c-0.268-0.058-0.297,0.123-0.314,0.314c-0.279-0.682-1.793,0.038-0.943,0.314
			C322.019,12.415,321.882,11.927,321.529,11.959z"/>
		<path fill="#D9D9D9" d="M324.985,10.701c-0.213-0.729-1.044-0.841-1.256-1.57c0.729,0.212,0.841,1.044,1.57,1.257
			c0.111,0.413,0.554,0.494,0.629,0.942C325.517,11.219,325.435,10.777,324.985,10.701z"/>
		<path fill="#BEBEBE" d="M332.842,10.073c0.566,0.001-0.429-0.993-0.942-0.942c0-0.105,0-0.21,0-0.314c0.419,0,0.838,0,1.257,0
			c0.075,0.448,0.517,0.53,0.628,0.942c-0.139,0.28-0.275,0.563-0.628,0.629C332.89,10.445,332.859,10.265,332.842,10.073z"/>
		<path fill="#B9B9B9" d="M322.157,11.959c-0.85-0.276,0.664-0.996,0.943-0.314c0.018-0.191,0.047-0.372,0.314-0.314
			c-0.166,0.253-0.328,0.51-0.314,0.943c-0.104,0-0.209,0-0.314,0C322.675,11.913,322.233,11.477,322.157,11.959z"/>
		<path fill="#B9B9B9" d="M322.786,8.816c0.084,0.922,0.434,1.167,0,1.571c-0.416-0.004-0.287-0.551-0.629-0.629
			c0.207,1.149-0.68,1.206-0.628,2.2c-0.104,0-0.21,0-0.314,0c-0.513,0.142-0.513-1.713,0-1.571
			c0.554-0.284,0.974-0.703,1.257-1.257C322.489,8.938,322.519,8.758,322.786,8.816z"/>
		<path fill="#F2F2F2" d="M325.929,11.33c-0.075-0.448-0.518-0.53-0.629-0.942c0.641,0.092,0.616,0.85,1.258,0.942
			c0.092,0.641,0.85,0.616,0.942,1.257c-0.642-0.092-0.616-0.85-1.257-0.942C326.301,11.377,326.12,11.348,325.929,11.33z"/>
		<path fill="#C1C1C1" d="M331.585,11.016c0.896-0.217,1.67-0.249,0.314-0.942c0.314,0,0.628,0,0.942,0
			c0.018,0.191,0.046,0.372,0.314,0.314c0,0.104,0,0.209,0,0.313c-0.294,0.23-0.477,0.572-0.629,0.943
			c-0.341-0.078-0.213-0.625-0.628-0.629C331.839,11.372,331.583,11.19,331.585,11.016z"/>
		<path fill="#BBBBBB" d="M324.672,11.016c0.191-0.018,0.372-0.046,0.313-0.314c0.449,0.076,0.531,0.518,0.943,0.629
			c0.191,0.018,0.372,0.047,0.314,0.314c-0.104,0-0.209,0-0.314,0c-0.656-0.134-0.832,0.216-1.257,0.314c0-0.104,0-0.21,0-0.314
			C324.672,11.435,324.672,11.226,324.672,11.016z"/>
		<path fill="#C2C2C2" d="M333.156,10.388c0.353-0.066,0.489-0.349,0.628-0.629c0.105,0,0.21,0,0.314,0
			c0.293,0.755,1.264,0.832,0.943,2.2c-0.105,0-0.21,0-0.314,0c0.088-0.562-0.297-0.645-0.314-0.314
			c-0.255,0.06-0.313,0.315-0.629,0.314c-0.356-0.06-0.174-0.315,0-0.314c-0.203-0.32-0.723-0.325-0.628-0.943
			C333.156,10.597,333.156,10.492,333.156,10.388z"/>
		<path fill="#BABABA" d="M323.101,12.273c-0.014-0.433,0.148-0.69,0.314-0.943c-0.846-0.842,0.384-1.313,0.314,0
			c0,0.104,0,0.21,0,0.314c-0.369,0.051-0.266,0.572-0.314,0.942C323.147,12.645,323.118,12.465,323.101,12.273z"/>
		<path fill="#BCBCBC" d="M323.729,11.645c0.313,0,0.628,0,0.942,0c0,0.104,0,0.21,0,0.314c-0.356,0.06-0.175,0.314,0,0.314
			c0,0.104,0,0.209,0,0.313c-0.253,0.167-0.511,0.328-0.942,0.314c0.057-0.268-0.123-0.296-0.314-0.314
			C323.464,12.217,323.36,11.695,323.729,11.645z"/>
		<path fill="#D9D9D9" d="M326.243,11.959c0-0.104,0-0.21,0-0.314c0.641,0.093,0.615,0.85,1.257,0.942c0,0.105,0,0.21,0,0.314
			C326.858,12.809,326.884,12.051,326.243,11.959z"/>
		<path fill="#C0C0C0" d="M329.071,11.959c0.268-0.058,0.297,0.122,0.314,0.314c0.806-0.032,0.504-1.172,0.941-1.572
			c1.004,0.27,0.973-0.494,1.572-0.628c1.355,0.693,0.582,0.726-0.314,0.942c-0.535-0.115-0.594,0.245-0.629,0.629
			c-0.787-0.054-0.762,0.703-1.256,0.942c-0.314,0-0.629,0-0.943,0c-0.255,0.06-0.313,0.315-0.629,0.314
			c0.076-0.448,0.518-0.53,0.629-0.942C328.861,11.959,328.966,11.959,329.071,11.959z"/>
		<path fill="#C3C3C3" d="M331.585,11.016c-0.002,0.175,0.254,0.356,0.314,0c0.415,0.004,0.287,0.551,0.628,0.629
			c0.152-0.371,0.335-0.713,0.629-0.943c-0.095,0.618,0.425,0.623,0.628,0.943c-0.174-0.001-0.356,0.255,0,0.314
			c-0.176,0.452-0.49,0.767-0.942,0.942c-0.627-1.036-0.496-0.067-1.571,0c0.166-0.253,0.328-0.51,0.314-0.942
			c-0.555,0.284-0.973,0.702-1.258,1.257c0,0.21,0,0.419,0,0.629c-0.05,0.368-0.572,0.265-0.941,0.313
			c0.512-1.558-0.038-0.177-0.629-0.942c0-0.21,0-0.419,0-0.629c0.314,0,0.629,0,0.943,0c0.267-0.058,0.295,0.123,0.313,0.314
			c0.46-0.273,0.996-0.471,0.942-1.257C330.991,11.261,331.05,10.9,331.585,11.016z"/>
		<path fill="#A0A0A0" d="M333.784,11.959c0.315,0.001,0.374-0.255,0.629-0.314c-0.916,1.179-1.963,2.227-3.143,3.143
			c0-0.104,0-0.21,0-0.314c0.658-0.39,1.182-0.914,1.571-1.571C333.295,12.726,333.608,12.411,333.784,11.959z"/>
		<path fill="#999999" d="M331.271,14.787c1.18-0.916,2.227-1.964,3.143-3.143c0.018-0.331,0.402-0.247,0.314,0.314
			c-0.314,0.418-0.518,0.948-0.943,1.257c-0.104,0-0.209,0-0.314,0c-0.554,0.284-0.973,0.703-1.256,1.257
			c-0.285,0.555-0.703,0.974-1.258,1.258c-0.268-0.058-0.297,0.122-0.314,0.313c-0.963-0.308,0.361-0.838,0.314-1.257
			C331.062,14.787,331.166,14.787,331.271,14.787z"/>
		<path fill="#BBBBBB" d="M321.529,11.959c0.353-0.032,0.489,0.457,0.628,0c0.076-0.482,0.518-0.046,0.629,0.314
			c-0.306,0.008-0.244,0.385-0.314,0.628c-0.254-0.06-0.313-0.315-0.628-0.314c-0.104,0-0.21,0-0.314,0
			c0.001-0.314-0.255-0.373-0.314-0.628C321.319,11.959,321.425,11.959,321.529,11.959z"/>
		<path fill="#BDBDBD" d="M322.472,12.901c0.07-0.243,0.009-0.62,0.314-0.628c0.105,0,0.21,0,0.314,0
			c0.018,0.191,0.047,0.371,0.314,0.313c0.191,0.019,0.372,0.047,0.314,0.314c-1.205-0.057-0.114,0.258-0.314,0.943
			c-0.105,0-0.21,0-0.314,0C322.989,13.432,322.548,13.35,322.472,12.901z"/>
		<path fill="#C0C0C0" d="M326.243,12.587c-0.418,0.315-1.17,0.298-1.258,0.943c-0.356-0.06-0.174-0.315,0-0.314
			c0-0.104,0-0.21,0-0.314c0.059-0.268-0.122-0.296-0.314-0.314c0-0.104,0-0.209,0-0.313c0.586-0.043,1.051-0.207,1.258-0.629
			c0.104,0,0.209,0,0.314,0c0,0.104,0,0.21,0,0.314C325.786,12.098,326.274,12.234,326.243,12.587z"/>
		<path fill="#C4C4C4" d="M330.327,13.216c0.285-0.555,0.703-0.974,1.258-1.258c0.014,0.433-0.148,0.69-0.314,0.943
			c0.059,0.268-0.122,0.296-0.314,0.314C330.817,12.759,330.681,13.248,330.327,13.216z"/>
		<path fill="#C2C2C2" d="M331.271,12.901c1.075-0.067,0.944-1.036,1.571,0c-0.39,0.657-0.913,1.182-1.571,1.571
			c-0.732,0-1.467,0-2.199,0c-0.059-0.268,0.123-0.296,0.314-0.314c0.369-0.049,0.892,0.054,0.941-0.314
			c0.535,0.116,0.594-0.245,0.629-0.628C331.148,13.197,331.329,13.169,331.271,12.901z M331.271,14.158
			c0.029-0.495,0.801-0.246,0.629-0.942C331.251,12.939,330.709,14.251,331.271,14.158z"/>
		<path fill="#C8C8C8" d="M323.101,13.844c-0.555-0.283-0.973-0.703-1.258-1.257c0.315-0.001,0.375,0.255,0.629,0.314
			C322.548,13.35,322.989,13.432,323.101,13.844z"/>
		<path fill="#F8F8F8" d="M321.529,13.216c0-0.21,0-0.419,0-0.629c0.104,0,0.21,0,0.314,0c0.284,0.554,0.702,0.974,1.257,1.257
			c0.092,0.642,0.851,0.616,0.943,1.258c-1.009-0.249-1.373-1.142-2.2-1.571C321.825,13.338,321.796,13.157,321.529,13.216z"/>
		<path fill="#C2C2C2" d="M324.043,14.473c0.04-0.563-0.384-0.663-0.313-1.257c0.563,0.04,0.662-0.385,1.256-0.314
			c0,0.104,0,0.21,0,0.314c-0.174-0.001-0.355,0.254,0,0.314c0.088-0.646,0.84-0.628,1.258-0.943
			c0.389,1.017-1.017,0.24-0.629,1.257c-0.418,0-0.838,0-1.257,0c0,0.314,0,0.629,0,0.943
			C324.09,14.845,324.062,14.664,324.043,14.473z"/>
		<path fill="#BFBFBF" d="M328.757,12.587c0,0.21,0,0.419,0,0.629c-0.279,0.14-0.563,0.276-0.629,0.629c-0.209,0-0.418,0-0.629,0
			c0-0.105,0-0.21,0-0.314c0.778,0.04,0.535-0.385,0-0.314c0-0.104,0-0.21,0-0.314c0.211,0,0.42,0,0.629,0
			C328.443,12.902,328.503,12.646,328.757,12.587z"/>
		<path fill="#C4C4C4" d="M328.757,13.216c0.591,0.765,1.141-0.616,0.629,0.942c-0.191,0.019-0.373,0.047-0.314,0.314
			c-0.314,0-0.629,0-0.943,0c0-0.21,0-0.419,0-0.629C328.194,13.491,328.478,13.354,328.757,13.216z"/>
		<path fill="#C3C3C3" d="M331.899,13.216c0.172,0.696-0.6,0.447-0.629,0.942C330.709,14.251,331.251,12.939,331.899,13.216z"/>
		<path fill="#ADADAD" d="M332.214,14.473c0.283-0.554,0.702-0.974,1.256-1.257C333.187,13.77,332.768,14.188,332.214,14.473z"/>
		<path fill="#D0D0D0" d="M332.214,14.473c0.554-0.284,0.973-0.702,1.256-1.257c0.105,0,0.21,0,0.314,0
			c-0.324,0.827-1.246,1.059-1.57,1.886c-0.461,0.272-0.996,0.47-0.943,1.257c0,0.104,0,0.209,0,0.314c-0.104,0-0.209,0-0.314,0
			c0-0.314,0-0.629,0-0.943C331.511,15.446,331.929,15.026,332.214,14.473z"/>
		<path fill="#CBCBCB" d="M324.043,15.102c-0.093-0.642-0.851-0.616-0.942-1.258c0.104,0,0.209,0,0.314,0
			c0.139,0.28,0.275,0.563,0.628,0.629c0.019,0.191,0.047,0.372,0.314,0.314c0.06,0.254,0.315,0.313,0.314,0.628
			C324.417,15.355,324.358,15.1,324.043,15.102z"/>
		<path fill="#C5C5C5" d="M325.614,13.844c0.252-0.166,0.51-0.327,0.943-0.313c0.059,0.254,0.314,0.313,0.314,0.628
			c-0.105,0-0.211,0-0.314,0C326.264,14.351,325.397,14.889,325.614,13.844z"/>
		<path fill="#C4C4C4" d="M326.872,14.158c0-0.315-0.256-0.374-0.314-0.628c0.209,0,0.418,0,0.628,0c0.104,0,0.21,0,0.314,0
			c0,0.104,0,0.209,0,0.313c-0.457,0.14,0.032,0.276,0,0.629C327.245,14.413,327.187,14.157,326.872,14.158z"/>
		<path fill="#C4C4C4" d="M324.357,14.787c0-0.314,0-0.629,0-0.943c0.419,0,0.839,0,1.257,0c-0.216,1.045,0.65,0.507,0.943,0.314
			c-0.284,0.554-0.703,0.974-1.258,1.257C325.163,15.029,324.897,14.771,324.357,14.787z"/>
		<path fill="#C3C3C3" d="M326.558,14.158c0.104,0,0.209,0,0.314,0c0.314-0.001,0.373,0.255,0.628,0.314c0.21,0,0.419,0,0.628,0
			c0,0.104,0,0.21,0,0.314c-1.096-0.05-1.332,0.762-2.199,0.942c-0.365,0.052-0.559-0.069-0.629-0.314
			C325.854,15.132,326.272,14.712,326.558,14.158z"/>
		<path fill="#C0C0C0" d="M324.672,15.415c0.001-0.314-0.255-0.374-0.314-0.628c0.54-0.017,0.806,0.242,0.942,0.628
			c-0.305,0.009-0.243,0.385-0.314,0.629c-0.104,0-0.209,0-0.313,0C324.672,15.834,324.672,15.625,324.672,15.415z"/>
		<path fill="#B2B2B2" d="M328.442,15.102c0.498-0.026,1.198,0.151,1.258-0.314c0.313,0,0.627,0,0.941,0
			c-0.134,0.6-0.897,0.568-0.628,1.571c0.365,0.051,0.559-0.069,0.628-0.314c0.018-0.191,0.047-0.372,0.314-0.314
			c0,0.314,0,0.629,0,0.943c-0.306,0.008-0.244,0.385-0.314,0.628c-0.254-0.06-0.313-0.315-0.628-0.313
			c-0.001,0.949-0.589,0.08-1.257,0.628c-0.268,0.059-0.297-0.123-0.314-0.314c0.427-0.097,0.261-0.786,0.314-1.257
			c-0.832,1.002-2.047-0.222-2.199,1.571c-0.105,0-0.21,0-0.314,0c0.06-0.255,0.314-0.313,0.314-0.628
			c-1.414,0.188-2.389,2.59-0.629,0.942c0.539,1.024-1.506,1.512,0,1.571c-0.139,0.279-0.275,0.562-0.629,0.628
			c-0.279-0.139-0.563-0.275-0.629-0.628c0.307-0.009,0.244-0.385,0.314-0.629c-0.534-0.115-0.593,0.245-0.629,0.629
			c-0.252-0.167-0.51-0.328-0.941-0.314c0.166-0.253,0.327-0.51,0.313-0.943c0.21,0,0.419,0,0.628,0
			c0.041-0.563-0.384-0.662-0.313-1.256c1.83,0.442,2.475-1.536,3.771-0.629C328.491,15.89,327.47,15.471,328.442,15.102z
			 M329.386,16.044c-0.686,1.896,0.201-0.979-0.314,0C329.091,16.007,329.372,16.081,329.386,16.044z"/>
		<path fill="#A6A6A6" d="M330.642,16.044c-0.069,0.245-0.263,0.365-0.628,0.314c-0.27-1.003,0.494-0.972,0.628-1.572
			c0.105,0,0.21,0,0.314,0C331.003,15.205,329.679,15.735,330.642,16.044z"/>
		<path fill="#B3B3B3" d="M328.128,14.787c-0.058,0.268,0.123,0.296,0.314,0.314c-0.973,0.369,0.049,0.788-0.629,1.257
			c-1.296-0.907-1.94,1.071-3.771,0.629c-0.07,0.594,0.354,0.693,0.313,1.256c-0.209,0-0.418,0-0.628,0
			c-0.255-0.059-0.313-0.314-0.628-0.313c0.111-0.413,0.553-0.494,0.628-0.942c0.452-0.177,0.767-0.49,0.942-0.943
			c0.105,0,0.21,0,0.314,0c0.446,0.027,0.891,0.052,0.943-0.314C326.796,15.549,327.032,14.737,328.128,14.787z"/>
		<path fill="#B1B1B1" d="M329.071,16.044c0.516-0.979-0.371,1.896,0.314,0C329.372,16.081,329.091,16.007,329.071,16.044z"/>
		<path fill="#B1B1B1" d="M328.757,17.615c0.668-0.548,1.256,0.321,1.257-0.629c0.315-0.001,0.374,0.255,0.628,0.314
			c0.07-0.243,0.009-0.62,0.314-0.629c0.105,0,0.21,0,0.314,0c0.268-0.058,0.297,0.123,0.314,0.314
			c0.434,0.928,1.451,1.272,1.885,2.2c-0.229,0.293-0.57,0.476-0.942,0.628c0.075,0.811,0.541-0.432,1.257,0
			c-0.014,0.804,0.234,0.384,0.629,0.314c0.104,0,0.209,0,0.314,0c0,0.104,0,0.209,0,0.314c0,0.104,0,0.209,0,0.313
			c-0.73,0.213-0.842,1.045-1.571,1.258c-0.419,0-0.838,0-1.257,0c0.058-0.268-0.123-0.297-0.314-0.314
			c-0.166-0.253-0.328-0.51-0.314-0.943c0.209,0,0.419,0,0.629,0c0.086,1.93,1.35-0.089,0-0.313c-0.523-0.625,0.027-0.4,0-1.257
			c-0.701,0.137-1.121,0.556-1.258,1.257c-0.008,0.306-0.385,0.243-0.628,0.313c-0.96-0.296-0.985-1.528-2.2-1.57
			c-0.254,0.059-0.313,0.314-0.628,0.313c0.138-0.386,0.401-0.645,0.942-0.628c0.105,0,0.21,0,0.314,0
			c0.088-0.508-0.297-0.541-0.314-0.943C328.942,18.358,329.116,18.944,328.757,17.615z M329.071,17.929
			c1.225,0.285-1.042,1.157,0,1.258c-0.094-0.827,1.219-0.248,0.942-1.258C329.474,18.054,329.208,17.463,329.071,17.929z"/>
		<path fill="#FDFDFD" d="M332.527,17.301c-0.452-0.176-0.767-0.49-0.942-0.942C331.767,16.641,333.279,17.116,332.527,17.301z"/>
		<path fill="#B1B1B1" d="M326.243,17.615c0.104,0,0.209,0,0.314,0c0.152-1.793,1.367-0.57,2.199-1.571
			c-0.054,0.47,0.112,1.159-0.314,1.257c-1.374-1.199-2.986,2.639-0.943,0.628c0,0.21,0,0.419,0,0.629c-0.104,0-0.209,0-0.313,0
			c-0.642,0.093-0.616,0.851-1.257,0.942c-1.506-0.059,0.539-0.547,0-1.571C325.87,17.662,326.052,17.633,326.243,17.615z"/>
		<path fill="#B3B3B3" d="M325.929,17.929c-1.76,1.647-0.785-0.753,0.629-0.942c0,0.315-0.255,0.374-0.314,0.629
			C326.052,17.633,325.87,17.662,325.929,17.929z"/>
		<path fill="#F2F2F2" d="M331.271,16.672c0-0.104,0-0.209,0-0.313c0.105,0,0.209,0,0.314,0c0.176,0.452,0.49,0.767,0.942,0.942
			c0,0.104,0,0.209,0,0.314c-0.413-0.111-0.494-0.554-0.942-0.629C331.567,16.795,331.538,16.614,331.271,16.672z"/>
		<path fill="#EAEAEA" d="M322.472,17.929c0.641-0.092,0.616-0.85,1.258-0.942c-0.076,0.448-0.518,0.53-0.629,0.942
			c-0.254,0.061-0.313,0.315-0.629,0.314C322.472,18.139,322.472,18.034,322.472,17.929z"/>
		<path fill="#B0B0B0" d="M330.014,17.929c0.276,1.01-1.036,0.431-0.942,1.258c-1.042-0.101,1.225-0.973,0-1.258
			C329.208,17.463,329.474,18.054,330.014,17.929z"/>
		<path fill="#D9D9D9" d="M333.47,19.187c-0.434-0.928-1.451-1.272-1.885-2.2c0.448,0.075,0.529,0.518,0.942,0.629
			c0.019,0.191,0.047,0.372,0.314,0.313c0.39,0.658,0.914,1.182,1.571,1.571c0.06,0.255,0.315,0.313,0.314,0.629
			c-0.105,0-0.21,0-0.314,0C334.237,19.677,333.923,19.362,333.47,19.187z"/>
		<path fill="#AAAAAA" d="M325.929,19.5c0.641-0.092,0.616-0.85,1.257-0.942c-0.601,0.865-1.334,1.599-2.2,2.199
			c0.061-0.254,0.316-0.313,0.314-0.628C325.653,20.063,325.79,19.78,325.929,19.5z"/>
		<path fill="#F2F2F2" d="M334.413,19.5c-0.657-0.39-1.182-0.913-1.571-1.571c0.641,0.093,0.616,0.851,1.257,0.943
			C334.158,19.126,334.414,19.185,334.413,19.5z"/>
		<path fill="#B3B3B3" d="M322.157,18.872c0.294-0.192,1.16-0.731,0.943,0.314c0,0.104,0,0.209,0,0.313
			c-0.826-0.093-0.247,1.22-1.257,0.943c0-0.21,0-0.419,0-0.629c-0.508-0.089-0.541,0.297-0.942,0.314c0-0.104,0-0.21,0-0.314
			C321.542,19.722,321.517,18.964,322.157,18.872z"/>
		<path fill="#999999" d="M327.5,18.558c0.365-0.051,0.56,0.069,0.628,0.314c-0.54-0.017-0.805,0.242-0.942,0.628
			c-0.284,0.555-0.702,0.974-1.257,1.257c-0.555,0.284-0.973,0.703-1.258,1.258c-0.139,0.279-0.275,0.562-0.628,0.628
			c-1.507-0.11,0.671-0.94,0.628-1.571c0.268,0.058,0.297-0.122,0.314-0.314c0.865-0.601,1.6-1.334,2.2-2.199
			C327.29,18.558,327.396,18.558,327.5,18.558z"/>
		<path fill="#B1B1B1" d="M323.101,19.5c0-0.104,0-0.209,0-0.313c0.104,0,0.209,0,0.314,0c0.432-0.014,0.689,0.147,0.942,0.313
			c0.104,0,0.21,0,0.314,0c0.065,0.353,0.349,0.49,0.628,0.629c0.002,0.315-0.254,0.374-0.314,0.628
			c-0.018,0.192-0.046,0.372-0.313,0.314c-0.009-0.306-0.385-0.243-0.629-0.314c0.091-1.698-1.686,0.731-0.942,0.629
			c0.058,0.268-0.123,0.297-0.314,0.314c-0.535,0.115-0.594-0.245-0.629-0.629C322.226,20.482,323.99,20.011,323.101,19.5z"/>
		<path fill="#D0D0D0" d="M327.186,19.5c0.315,0.001,0.374-0.255,0.629-0.313c-0.111,0.412-0.554,0.493-0.629,0.942
			c-0.28,0.14-0.562,0.275-0.628,0.628c-1.03,0.542-1.485,1.658-2.515,2.2c0-0.104,0-0.209,0-0.314
			c0.353-0.066,0.489-0.349,0.629-0.628c0.554-0.284,0.974-0.703,1.257-1.258C326.482,20.474,326.901,20.055,327.186,19.5z"/>
		<path fill="#B0B0B0" d="M330.642,20.443c0.137-0.701,0.557-1.12,1.258-1.257c0.027,0.856-0.523,0.632,0,1.257
			c0,0.104,0,0.209,0,0.313c-0.21,0-0.42,0-0.629,0C331.263,20.451,330.886,20.514,330.642,20.443z"/>
		<path fill="#B0B0B0" d="M321.844,20.443c1.01,0.276,0.431-1.036,1.257-0.943c0.891,0.511-0.874,0.982-0.943,1.571
			c-0.104,0-0.209,0-0.313,0C321.844,20.862,321.844,20.652,321.844,20.443z"/>
		<path fill="#F8F8F8" d="M328.757,20.443c-0.129-0.396-0.405-0.643-0.943-0.629c-0.254,0.06-0.313,0.315-0.628,0.314
			c0.075-0.449,0.517-0.53,0.628-0.942c1.215,0.042,1.24,1.274,2.2,1.57c0.06,0.255,0.315,0.313,0.313,0.629
			c-0.104,0-0.209,0-0.313,0c-0.315,0.001-0.374-0.255-0.628-0.314C329.246,20.792,329.109,20.51,328.757,20.443z"/>
		<path fill="#B2B2B2" d="M334.413,20.129c-0.395,0.069-0.643,0.489-0.629-0.314c-0.716-0.432-1.182,0.811-1.257,0
			c0.372-0.152,0.713-0.335,0.942-0.628C333.923,19.362,334.237,19.677,334.413,20.129z"/>
		<path fill="#FAFAFA" d="M327.186,20.129c0.315,0.001,0.374-0.255,0.629-0.314c-0.284,0.555-0.704,0.974-1.257,1.257
			c0-0.104,0-0.209,0-0.314C326.624,20.404,326.905,20.269,327.186,20.129z"/>
		<path fill="#B0B0B0" d="M323.101,21.386c-0.743,0.103,1.033-2.327,0.942-0.629C323.506,20.743,323.229,20.99,323.101,21.386z"/>
		<path fill="#B2B2B2" d="M330.014,20.757c0.243-0.07,0.62-0.008,0.628-0.313c0.244,0.07,0.621,0.008,0.629,0.313
			c-0.014,0.434,0.148,0.69,0.314,0.943c-0.412-0.111-0.494-0.554-0.943-0.629c0.061,0.255,0.316,0.313,0.314,0.629
			c-0.254-0.06-0.313-0.315-0.629-0.314C330.329,21.07,330.073,21.012,330.014,20.757z"/>
		<path fill="#B5B5B5" d="M330.956,21.7c0.002-0.315-0.254-0.374-0.314-0.629c0.449,0.075,0.531,0.518,0.943,0.629
			c0.191,0.018,0.372,0.047,0.314,0.314c0,0.209,0,0.419,0,0.628C331.446,22.467,331.132,22.152,330.956,21.7z"/>
		<path fill="#B2B2B2" d="M323.101,21.386c0.129-0.396,0.405-0.643,0.942-0.629c0.244,0.071,0.62,0.009,0.629,0.314
			c-0.255,0.06-0.313,0.315-0.629,0.314C323.729,21.386,323.415,21.386,323.101,21.386z"/>
		<path fill="#ADADAD" d="M324.672,22.015c0.284-0.555,0.702-0.974,1.257-1.258C325.646,21.312,325.226,21.73,324.672,22.015z"/>
		<path fill="#EDEDED" d="M324.043,22.957c1.029-0.542,1.484-1.658,2.515-2.2c0,0.105,0,0.21,0,0.314
			c-1.03,0.542-1.485,1.658-2.515,2.2C324.043,23.167,324.043,23.062,324.043,22.957z"/>
		<path fill="#A0A0A0" d="M333.156,22.015c0.729-0.213,0.841-1.045,1.571-1.258c0,0.105,0,0.21,0,0.314
			c-0.73,0.213-0.842,1.044-1.571,1.257c0.39,0.769,0.913-0.941,1.571-0.942c0,0.104,0,0.209,0,0.314
			c-0.284,0.554-0.703,0.973-1.258,1.257c-0.209,0-0.418,0-0.628,0C332.753,22.449,333.139,22.416,333.156,22.015z"/>
		<path fill="#B2B2B2" d="M321.215,21.071c0.21,0,0.419,0,0.629,0c0.104,0,0.21,0,0.313,0c0.036,0.384,0.095,0.744,0.629,0.629
			c0.009,0.306,0.385,0.243,0.629,0.314c-0.166,0.252-0.328,0.51-0.314,0.942c-0.104,0-0.209,0-0.314,0
			c-0.412-0.111-0.494-0.554-0.942-0.629C321.681,21.863,321.378,21.537,321.215,21.071z"/>
		<path fill="#A6A6A6" d="M324.043,21.386c0.315,0.001,0.374-0.255,0.629-0.314c0.042,0.631-2.136,1.461-0.629,1.571
			c0,0.105,0,0.21,0,0.314c-0.313,0-0.628,0-0.942,0c-0.014-0.433,0.148-0.69,0.314-0.942
			C323.694,21.875,323.978,21.738,324.043,21.386z"/>
		<path fill="#999999" d="M334.728,21.386c-0.658,0.001-1.182,1.711-1.571,0.942c0.729-0.213,0.841-1.044,1.571-1.257
			C334.728,21.176,334.728,21.281,334.728,21.386z"/>
		<path fill="#AFAFAF" d="M323.101,21.386c0.314,0,0.629,0,0.942,0c-0.065,0.353-0.349,0.489-0.628,0.629
			c-0.244-0.071-0.62-0.009-0.629-0.314C322.978,21.683,323.158,21.653,323.101,21.386z"/>
		<path fill="#F6F6F6" d="M335.042,21.7c-0.139,0.909-0.662,1.433-1.572,1.571c0-0.104,0-0.21,0-0.314
			c0.555-0.284,0.974-0.703,1.258-1.257C334.832,21.7,334.937,21.7,335.042,21.7z"/>
		<path fill="#BFBFBF" d="M331.899,9.131c0.514-0.051,1.509,0.943,0.942,0.942c-0.314,0-0.628,0-0.942,0
			c-0.6,0.134-0.568,0.897-1.572,0.629c-0.438,0.4-0.136,1.539-0.941,1.571c-0.018-0.192-0.047-0.372-0.314-0.314
			c0.074-0.448,0.518-0.53,0.629-0.942c0.104,0,0.209,0,0.313,0c0.075-0.449,0.517-0.53,0.628-0.943
			C331.282,9.98,331.259,9.223,331.899,9.131z"/>
		<path fill="#BDBDBD" d="M324.672,11.959c0.425-0.099,0.601-0.447,1.257-0.314c-0.207,0.422-0.672,0.585-1.257,0.629
			C324.497,12.273,324.315,12.019,324.672,11.959z"/>
		<path fill="#FEFEFE" d="M327.5,12.587c-0.093-0.641-0.851-0.616-0.942-1.257"/>
		<path fill="#BFBFBF" d="M323.415,13.844c0.199-0.685-0.891-0.999,0.314-0.942c0.432,0.014,0.689-0.148,0.942-0.314
			c0.191,0.019,0.372,0.047,0.313,0.314c-0.594-0.07-0.693,0.354-1.256,0.314c-0.07,0.594,0.354,0.693,0.313,1.257
			C323.69,14.406,323.554,14.124,323.415,13.844z"/>
		<path fill="#BABABA" d="M327.186,13.53c-0.176-0.453-0.49-0.768-0.942-0.943c0.031-0.353-0.457-0.489,0-0.629
			c0.641,0.093,0.615,0.851,1.257,0.943c0,0.104,0,0.21,0,0.314c0.534-0.07,0.777,0.354,0,0.314
			C327.396,13.53,327.29,13.53,327.186,13.53z"/>
		<path fill="#C3C3C3" d="M326.243,12.587c0.452,0.177,0.767,0.491,0.942,0.943c-0.21,0-0.419,0-0.628,0
			c-0.434-0.014-0.691,0.147-0.943,0.314C325.226,12.827,326.631,13.604,326.243,12.587z"/>
		<path fill="#C7C7C7" d="M330.956,13.216c-0.035,0.383-0.094,0.744-0.629,0.628c0-0.209,0-0.419,0-0.628
			C330.681,13.248,330.817,12.759,330.956,13.216z"/>
		<path fill="#B9B9B9" d="M329.071,14.473c0.732,0,1.467,0,2.199,0c0,0.104,0,0.21,0,0.314c-0.104,0-0.209,0-0.314,0
			c-0.104,0-0.209,0-0.314,0c-0.314,0-0.628,0-0.941,0c-0.524,0-1.049,0-1.572,0c0-0.104,0-0.21,0-0.314
			C328.442,14.473,328.757,14.473,329.071,14.473z"/>
		<path fill="#B4B4B4" d="M328.128,14.787c0.523,0,1.048,0,1.572,0c-0.06,0.466-0.76,0.288-1.258,0.314
			C328.251,15.083,328.071,15.055,328.128,14.787z"/>
		<path fill="#B6B6B6" d="M324.985,16.044c0.071-0.244,0.01-0.62,0.314-0.629c0.07,0.245,0.264,0.365,0.629,0.314
			C325.876,16.096,325.433,16.07,324.985,16.044z"/>
		<path fill="#B5B5B5" d="M323.101,17.929c0.314-0.001,0.373,0.255,0.629,0.314c0.013,0.433-0.148,0.689-0.314,0.943
			c-0.105,0-0.21,0-0.314,0c0.217-1.046-0.65-0.507-0.943-0.314c0-0.315,0.255-0.374,0.314-0.629
			C322.787,18.244,322.846,17.989,323.101,17.929z"/>
		<path fill="#AFAFAF" d="M328.128,18.872c-0.069-0.245-0.263-0.365-0.629-0.314c0-0.21,0-0.419,0-0.629c0.211,0,0.42,0,0.629,0
			c0.018,0.402,0.402,0.436,0.314,0.943C328.338,18.872,328.233,18.872,328.128,18.872z"/>
		<path fill="#AFAFAF" d="M324.357,19.5c0.036-0.384,0.094-0.744,0.628-0.628c-0.07,0.243-0.008,0.619-0.313,0.628
			C324.567,19.5,324.462,19.5,324.357,19.5z"/>
		<path fill="#B1B1B1" d="M320.901,20.129c0.4-0.018,0.435-0.403,0.942-0.314c0,0.21,0,0.419,0,0.629c0,0.209,0,0.419,0,0.628
			c-0.21,0-0.419,0-0.629,0s-0.419,0-0.628,0C320.636,20.701,320.532,20.18,320.901,20.129z"/>
		<path fill="#FDFDFD" d="M328.757,20.443c0.353,0.066,0.489,0.349,0.629,0.628c-0.21,0-0.42,0-0.629,0
			C328.439,21.067,328.361,20.521,328.757,20.443z"/>
		<path fill="#B3B3B3" d="M331.899,20.443c1.35,0.225,0.086,2.243,0,0.313C331.899,20.652,331.899,20.548,331.899,20.443z"/>
		<path fill="#C4C4C4" d="M334.728,21.386c0-0.104,0-0.21,0-0.314s0-0.209,0-0.314c0-0.104,0-0.209,0-0.313
			c0.191,0.018,0.372,0.046,0.314,0.313c0,0.314,0,0.629,0,0.943c-0.105,0-0.21,0-0.314,0
			C334.728,21.595,334.728,21.49,334.728,21.386z"/>
		<path fill="#B2B2B2" d="M331.899,22.015c0.419,0,0.838,0,1.257,0c-0.018,0.401-0.403,0.435-0.314,0.942c0.21,0,0.419,0,0.628,0
			c0,0.104,0,0.21,0,0.314c-0.313,0-0.628,0-0.942,0c-0.003-0.415-0.55-0.287-0.628-0.629
			C331.899,22.434,331.899,22.224,331.899,22.015z"/>
		<path fill="#FCFCFC" d="M321.844,22.328c0.448,0.075,0.53,0.518,0.942,0.629c0,0.104,0,0.21,0,0.314"/>
		<path fill="#CDCDCD" d="M323.101,22.957c0.314,0,0.629,0,0.942,0c0,0.104,0,0.21,0,0.314c-0.419,0-0.838,0-1.257,0
			c0-0.104,0-0.21,0-0.314C322.892,22.957,322.995,22.957,323.101,22.957z"/>
		<path fill="#F2F2F2" d="M322.786,23.271c0.419,0,0.838,0,1.258,0c0,0.104,0,0.209,0,0.314c-0.42,0-0.839,0-1.258,0
			C322.786,23.48,322.786,23.376,322.786,23.271z"/>
		<path fill="#C4C4C4" d="M330.956,11.645c0.054,0.786-0.482,0.983-0.942,1.257c-0.019-0.191-0.047-0.372-0.313-0.314
			C330.194,12.348,330.169,11.591,330.956,11.645z"/>
		<path fill="#B3B3B3" d="M327.5,17.929c-2.044,2.011-0.431-1.827,0.942-0.628c0.019,0.191,0.047,0.372,0.314,0.314
			c0.359,1.329,0.186,0.743-0.629,0.313C327.919,17.929,327.71,17.929,327.5,17.929z"/>
	</g>
</g>
</svg>
