<?xml version="1.0" encoding="utf-8"?>
<!-- Generator: Adobe Illustrator 14.0.0, SVG Export Plug-In . SVG Version: 6.00 Build 43363)  -->
<!DOCTYPE svg PUBLIC "-//W3C//DTD SVG 1.1//EN" "http://www.w3.org/Graphics/SVG/1.1/DTD/svg11.dtd">
<svg version="1.1" id="Calque_1" xmlns="http://www.w3.org/2000/svg" xmlns:xlink="http://www.w3.org/1999/xlink" x="0px" y="0px"
	 width="349.956px" height="79.99px" viewBox="0 0 349.956 79.99" enable-background="new 0 0 349.956 79.99" xml:space="preserve">
<g>
	<g>
		<path fill-rule="evenodd" clip-rule="evenodd" fill="#88AAD3" d="M342.957,19.998c0-2.333,0-4.666,0-6.999c0.333,0,0.667,0,1,0
			c0,14.332,0,28.663,0,42.995c-0.333,0-0.667,0-1,0c0-2,0-4,0-5.999c0-2.667,0-5.333,0-7.999c0-4,0-8,0-11.999
			C342.957,26.663,342.957,23.331,342.957,19.998z"/>
		<path fill-rule="evenodd" clip-rule="evenodd" fill="#F0F0F0" d="M5,63.992c-1.666-13.67-1.666-34.325,0-47.994
			C5,31.33,5,46.661,5,61.992C5,62.659,5,63.325,5,63.992z"/>
		<path fill-rule="evenodd" clip-rule="evenodd" fill="#B9CFF1" d="M6.999,19.998c0.333,0,0.667,0,1,0c0,0.333,0,0.667,0,1
			c0,2,0,4,0,5.999c0,1,0,2,0,3c-0.333,0-0.667,0-1,0C6.999,26.663,6.999,23.331,6.999,19.998z"/>
		<path fill-rule="evenodd" clip-rule="evenodd" fill="#B9CFF1" d="M341.957,20.998c0-0.333,0-0.667,0-1c0.334,0,0.667,0,1,0
			c0,3.333,0,6.666,0,9.999c-0.333,0-0.666,0-1,0c0-1,0-2,0-3C341.957,24.997,341.957,22.997,341.957,20.998z"/>
		<path fill-rule="evenodd" clip-rule="evenodd" fill="#D4E3FF" d="M7.999,20.998c111.318,0,222.64,0,333.958,0c0,2,0,4,0,5.999
			c-111.318,0-222.64,0-333.958,0C7.999,24.997,7.999,22.997,7.999,20.998z"/>
		<path fill-rule="evenodd" clip-rule="evenodd" fill="#CFE0FF" d="M7.999,26.997c111.318,0,222.64,0,333.958,0c0,1,0,2,0,3
			c0,0.667,0,1.333,0,2c-111.318,0-222.64,0-333.958,0c0-0.667,0-1.333,0-2C7.999,28.997,7.999,27.997,7.999,26.997z"/>
		<path fill-rule="evenodd" clip-rule="evenodd" fill="#B1CAF2" d="M6.999,29.996c0.333,0,0.667,0,1,0c0,0.667,0,1.333,0,2
			c0,1.333,0,2.666,0,4c0,1.333,0,2.666,0,4c0,0.666,0,1.333,0,2c-0.333,0-0.667,0-1,0C6.999,37.995,6.999,33.996,6.999,29.996z"/>
		<path fill-rule="evenodd" clip-rule="evenodd" fill="#B1CAF2" d="M341.957,29.996c0.334,0,0.667,0,1,0c0,4,0,7.999,0,11.999
			c-0.333,0-0.666,0-1,0c0-0.667,0-1.334,0-2c0-1.333,0-2.667,0-4c0-1.333,0-2.667,0-4C341.957,31.33,341.957,30.663,341.957,29.996
			z"/>
		<path fill-rule="evenodd" clip-rule="evenodd" fill="#CBDDFF" d="M7.999,31.996c111.318,0,222.64,0,333.958,0c0,1.333,0,2.666,0,4
			c-111.318,0-222.64,0-333.958,0C7.999,34.662,7.999,33.329,7.999,31.996z"/>
		<path fill-rule="evenodd" clip-rule="evenodd" fill="#C8DBFF" d="M7.999,35.996c111.318,0,222.64,0,333.958,0c0,1.333,0,2.666,0,4
			c-111.318,0-222.64,0-333.958,0C7.999,38.662,7.999,37.329,7.999,35.996z"/>
		<path fill-rule="evenodd" clip-rule="evenodd" fill="#C5D8FF" d="M7.999,39.995c111.318,0,222.64,0,333.958,0c0,0.666,0,1.333,0,2
			c0,0.666,0,1.333,0,1.999c-111.318,0-222.64,0-333.958,0c0-0.666,0-1.333,0-1.999C7.999,41.328,7.999,40.661,7.999,39.995z"/>
		<path fill-rule="evenodd" clip-rule="evenodd" fill="#AAC5F2" d="M6.999,41.995c0.333,0,0.667,0,1,0c0,0.666,0,1.333,0,1.999
			c0,1.667,0,3.333,0,5c0,0.333,0,0.666,0,1c-0.333,0-0.667,0-1,0C6.999,47.327,6.999,44.661,6.999,41.995z"/>
		<path fill-rule="evenodd" clip-rule="evenodd" fill="#AAC5F2" d="M341.957,41.995c0.334,0,0.667,0,1,0c0,2.666,0,5.332,0,7.999
			c-0.333,0-0.666,0-1,0c0-0.334,0-0.667,0-1c0-1.667,0-3.333,0-5C341.957,43.328,341.957,42.661,341.957,41.995z"/>
		<path fill-rule="evenodd" clip-rule="evenodd" fill="#C0D6FF" d="M7.999,43.994c111.318,0,222.64,0,333.958,0c0,1.667,0,3.333,0,5
			c-111.318,0-222.64,0-333.958,0C7.999,47.327,7.999,45.661,7.999,43.994z"/>
		<path fill-rule="evenodd" clip-rule="evenodd" fill="#BAD2FF" d="M7.999,49.994c0-0.334,0-0.667,0-1c111.318,0,222.64,0,333.958,0
			c0,0.333,0,0.666,0,1c0,1.666,0,3.332,0,4.999c-111.318,0-222.64,0-333.958,0C7.999,53.326,7.999,51.66,7.999,49.994z"/>
		<path fill-rule="evenodd" clip-rule="evenodd" fill="#A3C1F3" d="M6.999,49.994c0.333,0,0.667,0,1,0c0,1.666,0,3.332,0,4.999
			c0,1,0,2,0,3c-0.333,0-0.667,0-1,0C6.999,55.326,6.999,52.66,6.999,49.994z"/>
		<path fill-rule="evenodd" clip-rule="evenodd" fill="#A3C1F3" d="M341.957,49.994c0.334,0,0.667,0,1,0c0,1.999,0,3.999,0,5.999
			c0,0.666,0,1.333,0,2c-0.333,0-0.666,0-1,0c0-1,0-2,0-3C341.957,53.326,341.957,51.66,341.957,49.994z"/>
		<path fill-rule="evenodd" clip-rule="evenodd" fill="#B3CEFF" d="M7.999,54.993c111.318,0,222.64,0,333.958,0c0,1,0,2,0,3
			c0,0.999,0,1.999,0,2.999c-110.984-0.666-224.639,1.333-333.958-1c0-0.666,0-1.333,0-1.999
			C7.999,56.993,7.999,55.993,7.999,54.993z"/>
		<path fill-rule="evenodd" clip-rule="evenodd" fill="#6F94C5" d="M342.957,55.993c0.333,0,0.667,0,1,0c0,1.666,0,3.333,0,4.999
			c-0.333,0-0.667,0-1,0c0-1,0-2,0-2.999C342.957,57.326,342.957,56.659,342.957,55.993z"/>
		<path fill-rule="evenodd" clip-rule="evenodd" fill="#6F94C5" d="M13.998,71.991c0-0.334,0-0.667,0-1c0.333,0,0.667,0,1,0
			c106.652,0.666,215.974-1.333,320.96,1C228.64,71.991,121.317,71.991,13.998,71.991z"/>
		<path fill-rule="evenodd" clip-rule="evenodd" fill="#BEBEBE" d="M334.958,73.991c-106.318-0.667-215.308,1.333-319.96-1
			c106.655,0,213.306,0,319.96,0C334.958,73.324,334.958,73.657,334.958,73.991z"/>
		<path fill-rule="evenodd" clip-rule="evenodd" fill="#F9F9F9" d="M5.999,12.999c-1.171,0.161-0.843,1.823-1,3
			C3.333,29.667,3.333,50.322,5,63.992c-0.163,1.162,0.221,1.778,1,2c0,1.333,0,2.666,0,3.999c1.987,0.013,1.271,2.729,4,2
			c0.028,0.972,1.224,0.775,2,1c0.733,0.934,1.818,1.515,3,1.999c104.32,1.667,215.641,1.667,319.96,0
			c1.135-0.189,0.556-1.003,0-0.999c0-0.334,0-0.667,0-1c0.851,0.184,0.943-0.391,1-1c1.162,0.162,1.779-0.221,2-1
			c0.333,0,0.666,0,1,0c-1.438,1.759-0.918,2.279,1.999,2c1.326-1.674,2.649-3.351,2-6.999c0.333,0,0.667,0,1,0
			c3.918-12.417,2.059-35.933,1-49.994c0.086-1.419,0.165-2.832-1-3c0-0.333,0-0.667,0-1c5.088,3.958,3,19.03,3,31.996
			c0,13.207,0.993,25.221-5,29.997c-10.196,8.126-65.666,2.999-82.989,2.999c-58.363,0-111.791,0-170.979,0
			c-21.739,0-71.847,5.267-80.99-3.999c-9.708-9.84-1.782-44.6-3-57.993c-0.34-2.007,0.205-3.128,2-3
			C5.999,12.332,5.999,12.665,5.999,12.999z"/>
		<path fill-rule="evenodd" clip-rule="evenodd" fill="#A4BEDF" d="M6.999,10.999C7.87,6.537,11.915,5.249,15.998,4
			c0.333,0,0.667,0,1,0c0,0.333,0,0.667,0,1c-0.851-0.184-0.943,0.39-1,1c-1.163-0.162-1.779,0.221-2,1
			c-1.162-0.163-1.779,0.221-2,1c-2.688-0.689-1.933,2.067-3,3c-0.851-0.184-0.943,0.39-1,1C7.148,12.182,7.056,11.608,6.999,10.999
			z"/>
		<path fill-rule="evenodd" clip-rule="evenodd" fill="#A4BEDF" d="M339.957,9.999c0.368-1.701-0.779-1.886-1.999-2
			c0.184-0.851-0.391-0.943-1-1c0-0.333,0-0.667,0-1c0.666,0,1.333,0,2,0c2.828,0.838,3.402,3.93,4.999,6c0,0.333,0,0.667,0,1
			c-0.333,0-0.667,0-1,0s-0.666,0-1,0c0.184-0.851-0.39-0.943-1-1C341.12,10.836,340.736,10.22,339.957,9.999z"/>
		<path fill-rule="evenodd" clip-rule="evenodd" fill="#E0EBFF" d="M13.998,6.999c0.263,0.652-0.493,1.202-1,1
			c8.443,3.362,25.794,1,39.995,1c92.93,0,196.319,0.817,284.965-1c1.22,0.113,2.367,0.299,1.999,2
			c-106.351,1.002-223.134,2.984-328.958-1c0.851,0.184,0.943-0.39,1-1C12.219,7.22,12.836,6.836,13.998,6.999z"/>
		<path fill-rule="evenodd" clip-rule="evenodd" fill="#A9C7FF" d="M7.999,62.992c105.122,4.001,229.354,1.986,333.958,1
			c-0.067,2.932-2.285,3.714-3.999,4.999c-0.546-2.436-8.814-1-15.998-1c-100.788,0-213.533,1.646-311.961-1.999
			c0.184-0.851-0.39-0.943-1-1C8.026,64.965,8.223,63.768,7.999,62.992z"/>
		<path fill-rule="evenodd" clip-rule="evenodd" fill="#88AAD3" d="M8.999,64.992c-0.513,4.179,4.589,2.743,5.999,4.999
			c0,0.333,0,0.667,0,1c-0.333,0-0.667,0-1,0c-0.667,0-1.333,0-2,0c-0.733-0.934-1.818-1.515-3-2c-0.521-1.479-1.479-2.52-2-3.999
			c0.282-1.615-0.945-1.722-1-3c0-15.998,0-31.996,0-47.994c2.208,0.125,0.425,4.242,1,6c0,3.333,0,6.666,0,9.999
			c0,4,0,7.999,0,11.999c0,2.666,0,5.332,0,7.999c0,2.666,0,5.332,0,7.999c0.547,1.452-1.168,5.167,1,4.999
			C8.223,63.768,8.026,64.965,8.999,64.992z"/>
		<path fill-rule="evenodd" clip-rule="evenodd" fill="#A5C5FF" d="M8.999,64.992c0.61,0.057,1.184,0.149,1,1
			c98.428,3.645,211.173,1.999,311.961,1.999c7.184,0,15.452-1.436,15.998,1c0,0.333,0,0.667,0,1c-107.654,0-215.305,0-322.96,0
			C13.588,67.735,8.486,69.171,8.999,64.992z"/>
		<path fill-rule="evenodd" clip-rule="evenodd" fill="#A9B5C4" d="M337.958,69.991c2.728,0.729,2.013-1.986,3.999-2
			c-0.56,1.44-1.56,2.44-2.999,3c-0.334,0-0.667,0-1,0C337.958,70.658,337.958,70.324,337.958,69.991z"/>
		<path fill-rule="evenodd" clip-rule="evenodd" fill="#EBEBEB" d="M9.999,71.991c-2.728,0.729-2.013-1.987-4-2
			c0-1.333,0-2.666,0-3.999c-0.184-0.851,0.39-0.943,1-1c0.521,1.479,1.479,2.52,2,3.999C8.717,70.606,9.944,70.713,9.999,71.991z"
			/>
		<path fill-rule="evenodd" clip-rule="evenodd" fill="#EBEBEB" d="M342.957,65.992c0.649,3.648-0.674,5.325-2,6.999
			c-2.917,0.279-3.438-0.241-1.999-2c1.439-0.56,2.439-1.56,2.999-3C341.795,66.829,342.178,66.213,342.957,65.992z"/>
		<path fill-rule="evenodd" clip-rule="evenodd" fill="#FFFFFF" d="M1,0c116.318,0,232.638,0,348.956,0c0,26.663,0,53.327,0,79.99
			c-116.652,0-233.303,0-349.956,0C0,54.326,0,28.663,0,3C-0.086,1.581-0.165,0.168,1,0z M5.999,11.999c-1.795-0.129-2.34,0.993-2,3
			c1.217,13.394-6.709,48.153,3,57.993c9.143,9.266,59.25,3.999,80.99,3.999c59.188,0,112.616,0,170.979,0
			c17.323,0,72.793,5.127,82.989-2.999c5.993-4.776,5-16.79,5-29.997c0-12.966,2.088-28.037-3-31.996
			c-1.597-2.07-2.171-5.161-4.999-6c-0.658-1.342-2.138-1.862-4-2c-0.333,0-0.666,0-1,0C230.303,2.333,119.653,2.333,15.998,4
			c-4.083,1.249-8.128,2.538-8.999,6.999C6.389,11.055,5.815,11.148,5.999,11.999z"/>
		<path fill-rule="evenodd" clip-rule="evenodd" fill="#88AAD3" d="M16.998,4c105.653,0,211.307,0,316.96,0c0.334,0,0.667,0,1,0
			C230.973,6.333,122.651,4.333,16.998,5C16.998,4.666,16.998,4.333,16.998,4z"/>
		<path fill-rule="evenodd" clip-rule="evenodd" fill="#D9E6FF" d="M331.959,5.999c1.666,0,3.332,0,4.999,0c0,0.333,0,0.667,0,1
			C335.505,6.452,331.79,8.167,331.959,5.999z"/>
		<path fill-rule="evenodd" clip-rule="evenodd" fill="#E2EDFF" d="M331.959,5.999c-0.169,2.168,3.546,0.453,4.999,1
			c0.609,0.057,1.184,0.149,1,1c-88.646,1.817-192.035,1-284.965,1c-14.2,0-31.551,2.362-39.995-1c0.507,0.202,1.262-0.348,1-1
			c0.221-0.779,0.837-1.162,2-1C121.316,5.999,226.64,5.999,331.959,5.999z"/>
		<path fill-rule="evenodd" clip-rule="evenodd" fill="#DEE9FF" d="M8.999,13.998c0-1,0-2,0-3c1.067-0.933,0.311-3.688,3-3
			c-0.057,0.61-0.149,1.184-1,1c105.824,3.983,222.608,2.002,328.958,1c0.779,0.221,1.163,0.837,1,2
			C234.298,16.645,118.961,12.679,8.999,13.998z"/>
		<path fill-rule="evenodd" clip-rule="evenodd" fill="#DCE8FF" d="M341.957,12.999c0,1.333,0,2.666,0,4
			c-110.652-0.667-223.973,1.333-332.958-1c0-0.667,0-1.333,0-2c109.962-1.319,225.299,2.646,331.958-2
			C341.567,12.055,342.141,12.148,341.957,12.999z"/>
		<path fill-rule="evenodd" clip-rule="evenodd" fill="#C5CEDA" d="M343.957,55.993c0-14.332,0-28.663,0-42.995
			c1.165,0.168,1.086,1.581,1,3c-0.664,15.333,1.33,33.326-1,46.994c0-0.667,0-1.333,0-2
			C343.957,59.326,343.957,57.659,343.957,55.993z"/>
		<path fill-rule="evenodd" clip-rule="evenodd" fill="#C5CEDA" d="M5,15.998c0.156-1.177-0.172-2.838,1-3c0,0.333,0,0.667,0,1
			c0,15.998,0,31.996,0,47.994c-0.333,0-0.667,0-1,0C5,46.661,5,31.33,5,15.998z"/>
		<path fill-rule="evenodd" clip-rule="evenodd" fill="#9BBCF3" d="M7.999,59.992c0,1,0,2,0,3c-2.168,0.168-0.453-3.547-1-4.999
			c0.333,0,0.667,0,1,0C7.999,58.659,7.999,59.326,7.999,59.992z"/>
		<path fill-rule="evenodd" clip-rule="evenodd" fill="#9BBCF3" d="M341.957,62.992c0-0.667,0-1.333,0-2c0-1,0-2,0-2.999
			c0.334,0,0.667,0,1,0c0,0.999,0,1.999,0,2.999C343.12,62.155,342.736,62.771,341.957,62.992z"/>
		<path fill-rule="evenodd" clip-rule="evenodd" fill="#ADCAFF" d="M341.957,62.992c0,0.333,0,0.667,0,1
			c-104.604,0.986-228.836,3.001-333.958-1c0-1,0-2,0-3c109.319,2.333,222.974,0.334,333.958,1
			C341.957,61.659,341.957,62.325,341.957,62.992z"/>
		<path fill-rule="evenodd" clip-rule="evenodd" fill="#D6D6D6" d="M5.999,65.992c-0.779-0.222-1.162-0.838-1-2c0-0.667,0-1.333,0-2
			c0.333,0,0.667,0,1,0c0.055,1.278,1.282,1.385,1,3C6.389,65.049,5.815,65.142,5.999,65.992z"/>
		<path fill-rule="evenodd" clip-rule="evenodd" fill="#88AAD3" d="M343.957,62.992c0,1,0,2,0,3c-0.333,0-0.667,0-1,0
			c-0.779,0.221-1.162,0.837-1,1.999c-1.986,0.014-1.271,2.729-3.999,2c0-0.333,0-0.667,0-1c1.714-1.285,3.932-2.067,3.999-4.999
			c0-0.333,0-0.667,0-1c0.779-0.221,1.163-0.837,1-2c0.333,0,0.667,0,1,0C343.957,61.659,343.957,62.325,343.957,62.992z"/>
		<path fill-rule="evenodd" clip-rule="evenodd" fill="#F0F0F0" d="M343.957,65.992c0-1,0-2,0-3c2.33-13.668,0.336-31.661,1-46.994
			C346.016,30.06,347.875,53.575,343.957,65.992z"/>
		<path fill-rule="evenodd" clip-rule="evenodd" fill="#93B7F2" d="M14.998,69.991c107.655,0,215.306,0,322.96,0
			c0,0.333,0,0.667,0,1c-0.221,0.779-0.838,1.162-2,1c-104.986-2.333-214.308-0.334-320.96-1
			C14.998,70.658,14.998,70.324,14.998,69.991z"/>
		<path fill-rule="evenodd" clip-rule="evenodd" fill="#C5CEDA" d="M11.999,70.991c0,0.667,0,1.333,0,2
			c-0.776-0.225-1.972-0.028-2-1c-0.055-1.278-1.281-1.385-1-3C10.18,69.477,11.266,70.058,11.999,70.991z"/>
		<path fill-rule="evenodd" clip-rule="evenodd" fill="#D6D6D6" d="M14.998,72.991c104.652,2.333,213.642,0.333,319.96,1
			c0.556-0.004,1.135,0.81,0,0.999c-106.654,0-213.305,0-319.96,0c-1.182-0.484-2.267-1.065-3-1.999c0-0.667,0-1.333,0-2
			c0.667,0,1.333,0,2,0c0,0.333,0,0.666,0,1C13.814,72.842,14.388,72.935,14.998,72.991z"/>
		<path fill-rule="evenodd" clip-rule="evenodd" fill="#EBEBEB" d="M14.998,74.99c106.655,0,213.306,0,319.96,0
			C230.639,76.657,119.318,76.657,14.998,74.99z"/>
		<path fill-rule="evenodd" clip-rule="evenodd" fill="#D9E6FF" d="M7.999,19.998c0-2.667,0-5.333,0-7.999
			c0.057-0.61,0.149-1.184,1-1c0,1,0,2,0,3c0,0.667,0,1.333,0,2c108.985,2.333,222.306,0.333,332.958,1c0,1,0,2,0,3
			c0,0.333,0,0.667,0,1c-111.318,0-222.64,0-333.958,0C7.999,20.664,7.999,20.331,7.999,19.998z"/>
		<path fill-rule="evenodd" clip-rule="evenodd" fill="#C6D8F2" d="M16.998,5c105.653-0.667,213.975,1.333,317.96-1
			c1.862,0.138,3.342,0.658,4,2c-0.667,0-1.334,0-2,0c-1.667,0-3.333,0-4.999,0c-105.319,0-210.643,0-315.961,0
			C16.055,5.389,16.147,4.815,16.998,5z"/>
		<path fill-rule="evenodd" clip-rule="evenodd" fill="#BFD3F0" d="M342.957,12.999c0,2.333,0,4.666,0,6.999c-0.333,0-0.666,0-1,0
			c0-1,0-2,0-3c0-1.333,0-2.667,0-4C342.291,12.999,342.624,12.999,342.957,12.999z"/>
		<path fill-rule="evenodd" clip-rule="evenodd" fill="#BFD3F0" d="M7.999,11.999c0,2.667,0,5.333,0,7.999c-0.333,0-0.667,0-1,0
			c-0.575-1.758,1.208-5.875-1-6c0-0.333,0-0.667,0-1c0-0.333,0-0.667,0-1c-0.184-0.851,0.39-0.943,1-1
			C7.056,11.608,7.148,12.182,7.999,11.999z"/>
		<path fill-rule="evenodd" clip-rule="evenodd" fill="#DBE4F0" d="M15.998,4c103.655-1.667,214.305-1.667,317.96,0
			C228.305,4,122.651,4,16.998,4C16.665,4,16.331,4,15.998,4z"/>
		<path fill-rule="evenodd" clip-rule="evenodd" fill="#9BA5B1" d="M13.998,71.991c107.319,0,214.642,0,321.96,0
			c-0.057,0.609-0.149,1.184-1,1c-106.654,0-213.305,0-319.96,0C14.388,72.935,13.814,72.842,13.998,71.991z"/>
	</g>
</g>
<g>
	<g>
		<path fill="#B9B9B9" d="M330.415,8.9c0,0.21,0,0.419,0,0.629c-0.314,0-0.629,0-0.942,0c0-0.104,0-0.21,0-0.314
			C329.904,9.229,330.162,9.067,330.415,8.9z"/>
		<path fill="#C5C5C5" d="M333.243,12.357c0.032-0.353-0.457-0.489,0-0.629c0.21,0,0.419,0,0.628,0c0,0.21,0,0.419,0,0.629
			C333.662,12.357,333.453,12.357,333.243,12.357z"/>
		<path fill="#FEFEFE" d="M336.385,20.842c0.545-1.02,0.824,0.816,1.886,0.314c0.314,0,0.629,0,0.942,0c0,0.104,0,0.209,0,0.314
			C337.471,21.599,337.305,21.777,336.385,20.842z"/>
		<path fill="#C8C8C8" d="M326.958,8.272c0.093-0.641,0.851-0.616,0.942-1.257c0.105,0,0.21,0,0.314,0
			C327.932,7.569,327.512,7.988,326.958,8.272z"/>
		<path fill="#B8B8B8" d="M327.272,9.844c-0.052-0.994,0.835-1.051,0.628-2.2c0.342,0.078,0.213,0.625,0.629,0.629
			c0.434-0.404,0.084-0.649,0-1.571c0.21,0,0.419,0,0.629,0c0.018,0.191,0.047,0.372,0.314,0.314
			c0.213,0.729,1.044,0.841,1.257,1.57c0.058,0.269-0.122,0.297-0.314,0.314c-0.253,0.167-0.51,0.328-0.942,0.314
			c0.07-1.313-1.16-0.842-0.314,0c-0.268-0.058-0.297,0.123-0.314,0.314c-0.279-0.682-1.793,0.038-0.943,0.314
			C327.762,10.3,327.625,9.812,327.272,9.844z"/>
		<path fill="#D9D9D9" d="M330.729,8.586c-0.213-0.729-1.044-0.841-1.256-1.57c0.729,0.212,0.841,1.044,1.57,1.257
			c0.111,0.413,0.554,0.494,0.629,0.942C331.26,9.104,331.178,8.662,330.729,8.586z"/>
		<path fill="#BEBEBE" d="M338.585,7.958c0.566,0.001-0.429-0.993-0.942-0.942c0-0.105,0-0.21,0-0.314c0.419,0,0.838,0,1.257,0
			c0.075,0.448,0.517,0.53,0.628,0.942c-0.139,0.28-0.275,0.563-0.628,0.629C338.633,8.33,338.603,8.149,338.585,7.958z"/>
		<path fill="#B9B9B9" d="M327.9,9.844c-0.85-0.276,0.664-0.996,0.943-0.314c0.018-0.191,0.047-0.372,0.314-0.314
			c-0.166,0.253-0.328,0.51-0.314,0.943c-0.104,0-0.209,0-0.314,0C328.418,9.798,327.977,9.361,327.9,9.844z"/>
		<path fill="#B9B9B9" d="M328.529,6.701c0.084,0.922,0.434,1.167,0,1.571c-0.416-0.004-0.287-0.551-0.629-0.629
			c0.207,1.149-0.68,1.206-0.628,2.2c-0.104,0-0.21,0-0.314,0c-0.513,0.142-0.513-1.713,0-1.571
			c0.554-0.284,0.974-0.703,1.257-1.257C328.232,6.823,328.262,6.643,328.529,6.701z"/>
		<path fill="#F2F2F2" d="M331.672,9.215c-0.075-0.448-0.518-0.53-0.629-0.942c0.641,0.092,0.616,0.85,1.258,0.942
			c0.092,0.641,0.85,0.616,0.942,1.257c-0.642-0.092-0.616-0.85-1.257-0.942C332.044,9.262,331.863,9.232,331.672,9.215z"/>
		<path fill="#C1C1C1" d="M337.328,8.9c0.896-0.217,1.67-0.249,0.314-0.942c0.314,0,0.628,0,0.942,0
			c0.018,0.191,0.046,0.372,0.314,0.314c0,0.104,0,0.209,0,0.313c-0.294,0.23-0.477,0.572-0.629,0.943
			c-0.341-0.078-0.213-0.625-0.628-0.629C337.582,9.257,337.326,9.075,337.328,8.9z"/>
		<path fill="#BBBBBB" d="M330.415,8.9c0.191-0.018,0.372-0.046,0.313-0.314c0.449,0.076,0.531,0.518,0.943,0.629
			c0.191,0.018,0.372,0.047,0.314,0.314c-0.104,0-0.209,0-0.314,0c-0.656-0.134-0.832,0.216-1.257,0.314c0-0.104,0-0.21,0-0.314
			C330.415,9.319,330.415,9.11,330.415,8.9z"/>
		<path fill="#C2C2C2" d="M338.899,8.272c0.353-0.066,0.489-0.349,0.628-0.629c0.105,0,0.21,0,0.314,0
			c0.293,0.755,1.264,0.832,0.943,2.2c-0.105,0-0.21,0-0.314,0c0.088-0.562-0.297-0.645-0.314-0.314
			c-0.255,0.06-0.313,0.315-0.629,0.314c-0.356-0.06-0.174-0.315,0-0.314c-0.203-0.32-0.723-0.325-0.628-0.943
			C338.899,8.481,338.899,8.377,338.899,8.272z"/>
		<path fill="#BABABA" d="M328.844,10.158c-0.014-0.433,0.148-0.69,0.314-0.943c-0.846-0.842,0.384-1.313,0.314,0
			c0,0.104,0,0.21,0,0.314c-0.369,0.051-0.266,0.572-0.314,0.942C328.891,10.529,328.861,10.35,328.844,10.158z"/>
		<path fill="#BCBCBC" d="M329.473,9.529c0.313,0,0.628,0,0.942,0c0,0.104,0,0.21,0,0.314c-0.356,0.06-0.175,0.314,0,0.314
			c0,0.104,0,0.209,0,0.313c-0.253,0.167-0.511,0.328-0.942,0.314c0.057-0.268-0.123-0.296-0.314-0.314
			C329.207,10.102,329.104,9.58,329.473,9.529z"/>
		<path fill="#D9D9D9" d="M331.986,9.844c0-0.104,0-0.21,0-0.314c0.641,0.093,0.615,0.85,1.257,0.942c0,0.105,0,0.21,0,0.314
			C332.602,10.693,332.627,9.936,331.986,9.844z"/>
		<path fill="#C0C0C0" d="M334.814,9.844c0.268-0.058,0.297,0.122,0.314,0.314c0.806-0.032,0.504-1.172,0.941-1.572
			c1.004,0.27,0.973-0.494,1.572-0.628c1.355,0.693,0.582,0.726-0.314,0.942c-0.535-0.115-0.594,0.245-0.629,0.629
			c-0.787-0.054-0.762,0.703-1.256,0.942c-0.314,0-0.629,0-0.943,0c-0.255,0.06-0.313,0.315-0.629,0.314
			c0.076-0.448,0.518-0.53,0.629-0.942C334.604,9.844,334.709,9.844,334.814,9.844z"/>
		<path fill="#C3C3C3" d="M337.328,8.9c-0.002,0.175,0.254,0.356,0.314,0c0.415,0.004,0.287,0.551,0.628,0.629
			c0.152-0.371,0.335-0.713,0.629-0.943c-0.095,0.618,0.425,0.623,0.628,0.943c-0.174-0.001-0.356,0.255,0,0.314
			c-0.176,0.452-0.49,0.767-0.942,0.942c-0.627-1.036-0.496-0.067-1.571,0c0.166-0.253,0.328-0.51,0.314-0.942
			c-0.555,0.284-0.973,0.702-1.258,1.257c0,0.21,0,0.419,0,0.629c-0.05,0.368-0.572,0.265-0.941,0.313
			c0.512-1.558-0.038-0.177-0.629-0.942c0-0.21,0-0.419,0-0.629c0.314,0,0.629,0,0.943,0c0.267-0.058,0.295,0.123,0.313,0.314
			c0.46-0.273,0.996-0.471,0.942-1.257C336.734,9.146,336.793,8.785,337.328,8.9z"/>
		<path fill="#A0A0A0" d="M339.527,9.844c0.315,0.001,0.374-0.255,0.629-0.314c-0.916,1.179-1.963,2.227-3.143,3.143
			c0-0.104,0-0.21,0-0.314c0.658-0.39,1.182-0.914,1.571-1.571C339.038,10.61,339.352,10.296,339.527,9.844z"/>
		<path fill="#999999" d="M337.014,12.672c1.18-0.916,2.227-1.964,3.143-3.143c0.018-0.331,0.402-0.247,0.314,0.314
			c-0.314,0.418-0.518,0.948-0.943,1.257c-0.104,0-0.209,0-0.314,0c-0.554,0.284-0.973,0.703-1.256,1.257
			c-0.285,0.555-0.703,0.974-1.258,1.258c-0.268-0.058-0.297,0.122-0.314,0.313c-0.963-0.308,0.361-0.838,0.314-1.257
			C336.805,12.672,336.909,12.672,337.014,12.672z"/>
		<path fill="#BBBBBB" d="M327.272,9.844c0.353-0.032,0.489,0.457,0.628,0c0.076-0.482,0.518-0.046,0.629,0.314
			c-0.306,0.008-0.244,0.385-0.314,0.628c-0.254-0.06-0.313-0.315-0.628-0.314c-0.104,0-0.21,0-0.314,0
			c0.001-0.314-0.255-0.373-0.314-0.628C327.063,9.844,327.168,9.844,327.272,9.844z"/>
		<path fill="#BDBDBD" d="M328.215,10.786c0.07-0.243,0.009-0.62,0.314-0.628c0.105,0,0.21,0,0.314,0
			c0.018,0.191,0.047,0.371,0.314,0.313c0.191,0.019,0.372,0.047,0.314,0.314c-1.205-0.057-0.114,0.258-0.314,0.943
			c-0.105,0-0.21,0-0.314,0C328.732,11.316,328.291,11.234,328.215,10.786z"/>
		<path fill="#C0C0C0" d="M331.986,10.472c-0.418,0.315-1.17,0.298-1.258,0.943c-0.356-0.06-0.174-0.315,0-0.314
			c0-0.104,0-0.21,0-0.314c0.059-0.268-0.122-0.296-0.314-0.314c0-0.104,0-0.209,0-0.313c0.586-0.043,1.051-0.207,1.258-0.629
			c0.104,0,0.209,0,0.314,0c0,0.104,0,0.21,0,0.314C331.529,9.982,332.018,10.119,331.986,10.472z"/>
		<path fill="#C4C4C4" d="M336.07,11.101c0.285-0.555,0.703-0.974,1.258-1.258c0.014,0.433-0.148,0.69-0.314,0.943
			c0.059,0.268-0.122,0.296-0.314,0.314C336.561,10.644,336.424,11.133,336.07,11.101z"/>
		<path fill="#C2C2C2" d="M337.014,10.786c1.075-0.067,0.944-1.036,1.571,0c-0.39,0.657-0.913,1.182-1.571,1.571
			c-0.732,0-1.467,0-2.199,0c-0.059-0.268,0.123-0.296,0.314-0.314c0.369-0.049,0.892,0.054,0.941-0.314
			c0.535,0.116,0.594-0.245,0.629-0.628C336.892,11.082,337.072,11.054,337.014,10.786z M337.014,12.043
			c0.029-0.495,0.801-0.246,0.629-0.942C336.994,10.824,336.452,12.136,337.014,12.043z"/>
		<path fill="#C8C8C8" d="M328.844,11.729c-0.555-0.283-0.973-0.703-1.258-1.257c0.315-0.001,0.375,0.255,0.629,0.314
			C328.291,11.234,328.732,11.316,328.844,11.729z"/>
		<path fill="#F8F8F8" d="M327.272,11.101c0-0.21,0-0.419,0-0.629c0.104,0,0.21,0,0.314,0c0.284,0.554,0.702,0.974,1.257,1.257
			c0.092,0.642,0.851,0.616,0.943,1.258c-1.009-0.249-1.373-1.142-2.2-1.571C327.568,11.223,327.539,11.042,327.272,11.101z"/>
		<path fill="#C2C2C2" d="M329.786,12.357c0.04-0.563-0.384-0.663-0.313-1.257c0.563,0.04,0.662-0.385,1.256-0.314
			c0,0.104,0,0.21,0,0.314c-0.174-0.001-0.355,0.254,0,0.314c0.088-0.646,0.84-0.628,1.258-0.943
			c0.389,1.017-1.017,0.24-0.629,1.257c-0.418,0-0.838,0-1.257,0c0,0.314,0,0.629,0,0.943
			C329.833,12.729,329.805,12.549,329.786,12.357z"/>
		<path fill="#BFBFBF" d="M334.5,10.472c0,0.21,0,0.419,0,0.629c-0.279,0.14-0.563,0.276-0.629,0.629c-0.209,0-0.418,0-0.629,0
			c0-0.105,0-0.21,0-0.314c0.778,0.04,0.535-0.385,0-0.314c0-0.104,0-0.21,0-0.314c0.211,0,0.42,0,0.629,0
			C334.187,10.787,334.246,10.531,334.5,10.472z"/>
		<path fill="#C4C4C4" d="M334.5,11.101c0.591,0.765,1.141-0.616,0.629,0.942c-0.191,0.019-0.373,0.047-0.314,0.314
			c-0.314,0-0.629,0-0.943,0c0-0.21,0-0.419,0-0.629C333.938,11.376,334.221,11.239,334.5,11.101z"/>
		<path fill="#C3C3C3" d="M337.643,11.101c0.172,0.696-0.6,0.447-0.629,0.942C336.452,12.136,336.994,10.824,337.643,11.101z"/>
		<path fill="#ADADAD" d="M337.957,12.357c0.283-0.554,0.702-0.974,1.256-1.257C338.93,11.654,338.511,12.073,337.957,12.357z"/>
		<path fill="#D0D0D0" d="M337.957,12.357c0.554-0.284,0.973-0.702,1.256-1.257c0.105,0,0.21,0,0.314,0
			c-0.324,0.827-1.246,1.059-1.57,1.886c-0.461,0.272-0.996,0.47-0.943,1.257c0,0.104,0,0.209,0,0.314c-0.104,0-0.209,0-0.314,0
			c0-0.314,0-0.629,0-0.943C337.254,13.331,337.672,12.911,337.957,12.357z"/>
		<path fill="#CBCBCB" d="M329.786,12.986c-0.093-0.642-0.851-0.616-0.942-1.258c0.104,0,0.209,0,0.314,0
			c0.139,0.28,0.275,0.563,0.628,0.629c0.019,0.191,0.047,0.372,0.314,0.314c0.06,0.254,0.315,0.313,0.314,0.628
			C330.16,13.24,330.102,12.984,329.786,12.986z"/>
		<path fill="#C5C5C5" d="M331.357,11.729c0.252-0.166,0.51-0.327,0.943-0.313c0.059,0.254,0.314,0.313,0.314,0.628
			c-0.105,0-0.211,0-0.314,0C332.007,12.235,331.141,12.773,331.357,11.729z"/>
		<path fill="#C4C4C4" d="M332.615,12.043c0-0.315-0.256-0.374-0.314-0.628c0.209,0,0.418,0,0.628,0c0.104,0,0.21,0,0.314,0
			c0,0.104,0,0.209,0,0.313c-0.457,0.14,0.032,0.276,0,0.629C332.988,12.298,332.93,12.042,332.615,12.043z"/>
		<path fill="#C4C4C4" d="M330.101,12.672c0-0.314,0-0.629,0-0.943c0.419,0,0.839,0,1.257,0c-0.216,1.045,0.65,0.507,0.943,0.314
			c-0.284,0.554-0.703,0.974-1.258,1.257C330.906,12.914,330.641,12.655,330.101,12.672z"/>
		<path fill="#C3C3C3" d="M332.301,12.043c0.104,0,0.209,0,0.314,0c0.314-0.001,0.373,0.255,0.628,0.314c0.21,0,0.419,0,0.628,0
			c0,0.104,0,0.21,0,0.314c-1.096-0.05-1.332,0.762-2.199,0.942c-0.365,0.052-0.559-0.069-0.629-0.314
			C331.598,13.017,332.016,12.597,332.301,12.043z"/>
		<path fill="#C0C0C0" d="M330.415,13.3c0.001-0.314-0.255-0.374-0.314-0.628c0.54-0.017,0.806,0.242,0.942,0.628
			c-0.305,0.009-0.243,0.385-0.314,0.629c-0.104,0-0.209,0-0.313,0C330.415,13.719,330.415,13.51,330.415,13.3z"/>
		<path fill="#B2B2B2" d="M334.186,12.986c0.498-0.026,1.198,0.151,1.258-0.314c0.313,0,0.627,0,0.941,0
			c-0.134,0.6-0.897,0.568-0.628,1.571c0.365,0.051,0.559-0.069,0.628-0.314c0.018-0.191,0.047-0.372,0.314-0.314
			c0,0.314,0,0.629,0,0.943c-0.306,0.008-0.244,0.385-0.314,0.628c-0.254-0.06-0.313-0.315-0.628-0.313
			c-0.001,0.949-0.589,0.08-1.257,0.628c-0.268,0.059-0.297-0.123-0.314-0.314c0.427-0.097,0.261-0.786,0.314-1.257
			c-0.832,1.002-2.047-0.222-2.199,1.571c-0.105,0-0.21,0-0.314,0c0.06-0.255,0.314-0.313,0.314-0.628
			c-1.414,0.188-2.389,2.59-0.629,0.942c0.539,1.024-1.506,1.512,0,1.571c-0.139,0.279-0.275,0.562-0.629,0.628
			c-0.279-0.139-0.563-0.275-0.629-0.628c0.307-0.009,0.244-0.385,0.314-0.629c-0.534-0.115-0.593,0.245-0.629,0.629
			c-0.252-0.167-0.51-0.328-0.941-0.314c0.166-0.253,0.327-0.51,0.313-0.943c0.21,0,0.419,0,0.628,0
			c0.041-0.563-0.384-0.662-0.313-1.256c1.83,0.442,2.475-1.536,3.771-0.629C334.234,13.774,333.213,13.355,334.186,12.986z
			 M335.129,13.929c-0.686,1.896,0.201-0.979-0.314,0C334.834,13.892,335.115,13.966,335.129,13.929z"/>
		<path fill="#A6A6A6" d="M336.385,13.929c-0.069,0.245-0.263,0.365-0.628,0.314c-0.27-1.003,0.494-0.972,0.628-1.572
			c0.105,0,0.21,0,0.314,0C336.746,13.09,335.422,13.62,336.385,13.929z"/>
		<path fill="#B3B3B3" d="M333.871,12.672c-0.058,0.268,0.123,0.296,0.314,0.314c-0.973,0.369,0.049,0.788-0.629,1.257
			c-1.296-0.907-1.94,1.071-3.771,0.629c-0.07,0.594,0.354,0.693,0.313,1.256c-0.209,0-0.418,0-0.628,0
			c-0.255-0.059-0.313-0.314-0.628-0.313c0.111-0.413,0.553-0.494,0.628-0.942c0.452-0.177,0.767-0.49,0.942-0.943
			c0.105,0,0.21,0,0.314,0c0.446,0.027,0.891,0.052,0.943-0.314C332.539,13.434,332.775,12.622,333.871,12.672z"/>
		<path fill="#B1B1B1" d="M334.814,13.929c0.516-0.979-0.371,1.896,0.314,0C335.115,13.966,334.834,13.892,334.814,13.929z"/>
		<path fill="#B1B1B1" d="M334.5,15.5c0.668-0.548,1.256,0.321,1.257-0.629c0.315-0.001,0.374,0.255,0.628,0.314
			c0.07-0.243,0.009-0.62,0.314-0.629c0.105,0,0.21,0,0.314,0c0.268-0.058,0.297,0.123,0.314,0.314
			c0.434,0.928,1.451,1.272,1.885,2.2c-0.229,0.293-0.57,0.476-0.942,0.628c0.075,0.811,0.541-0.432,1.257,0
			c-0.014,0.804,0.234,0.384,0.629,0.314c0.104,0,0.209,0,0.314,0c0,0.104,0,0.209,0,0.314c0,0.104,0,0.209,0,0.313
			c-0.73,0.213-0.842,1.045-1.571,1.258c-0.419,0-0.838,0-1.257,0c0.058-0.268-0.123-0.297-0.314-0.314
			c-0.166-0.253-0.328-0.51-0.314-0.943c0.209,0,0.419,0,0.629,0c0.086,1.93,1.35-0.089,0-0.313c-0.523-0.625,0.027-0.4,0-1.257
			c-0.701,0.137-1.121,0.556-1.258,1.257c-0.008,0.306-0.385,0.243-0.628,0.313c-0.96-0.296-0.985-1.528-2.2-1.57
			c-0.254,0.059-0.313,0.314-0.628,0.313c0.138-0.386,0.401-0.645,0.942-0.628c0.105,0,0.21,0,0.314,0
			c0.088-0.508-0.297-0.541-0.314-0.943C334.686,16.243,334.859,16.829,334.5,15.5z M334.814,15.813
			c1.225,0.285-1.042,1.157,0,1.258c-0.094-0.827,1.219-0.248,0.942-1.258C335.217,15.938,334.951,15.348,334.814,15.813z"/>
		<path fill="#FDFDFD" d="M338.271,15.186c-0.452-0.176-0.767-0.49-0.942-0.942C337.51,14.525,339.022,15.001,338.271,15.186z"/>
		<path fill="#B1B1B1" d="M331.986,15.5c0.104,0,0.209,0,0.314,0c0.152-1.793,1.367-0.57,2.199-1.571
			c-0.054,0.47,0.112,1.159-0.314,1.257c-1.374-1.199-2.986,2.639-0.943,0.628c0,0.21,0,0.419,0,0.629c-0.104,0-0.209,0-0.313,0
			c-0.642,0.093-0.616,0.851-1.257,0.942c-1.506-0.059,0.539-0.547,0-1.571C331.613,15.547,331.795,15.518,331.986,15.5z"/>
		<path fill="#B3B3B3" d="M331.672,15.813c-1.76,1.647-0.785-0.753,0.629-0.942c0,0.315-0.255,0.374-0.314,0.629
			C331.795,15.518,331.613,15.547,331.672,15.813z"/>
		<path fill="#F2F2F2" d="M337.014,14.557c0-0.104,0-0.209,0-0.313c0.105,0,0.209,0,0.314,0c0.176,0.452,0.49,0.767,0.942,0.942
			c0,0.104,0,0.209,0,0.314c-0.413-0.111-0.494-0.554-0.942-0.629C337.311,14.68,337.281,14.499,337.014,14.557z"/>
		<path fill="#EAEAEA" d="M328.215,15.813c0.641-0.092,0.616-0.85,1.258-0.942c-0.076,0.448-0.518,0.53-0.629,0.942
			c-0.254,0.061-0.313,0.315-0.629,0.314C328.215,16.023,328.215,15.919,328.215,15.813z"/>
		<path fill="#B0B0B0" d="M335.757,15.813c0.276,1.01-1.036,0.431-0.942,1.258c-1.042-0.101,1.225-0.973,0-1.258
			C334.951,15.348,335.217,15.938,335.757,15.813z"/>
		<path fill="#D9D9D9" d="M339.213,17.071c-0.434-0.928-1.451-1.272-1.885-2.2c0.448,0.075,0.529,0.518,0.942,0.629
			c0.019,0.191,0.047,0.372,0.314,0.313c0.39,0.658,0.914,1.182,1.571,1.571c0.06,0.255,0.315,0.313,0.314,0.629
			c-0.105,0-0.21,0-0.314,0C339.98,17.562,339.666,17.247,339.213,17.071z"/>
		<path fill="#AAAAAA" d="M331.672,17.385c0.641-0.092,0.616-0.85,1.257-0.942c-0.601,0.865-1.334,1.599-2.2,2.199
			c0.061-0.254,0.316-0.313,0.314-0.628C331.396,17.947,331.533,17.665,331.672,17.385z"/>
		<path fill="#F2F2F2" d="M340.156,17.385c-0.657-0.39-1.182-0.913-1.571-1.571c0.641,0.093,0.616,0.851,1.257,0.943
			C339.901,17.011,340.157,17.069,340.156,17.385z"/>
		<path fill="#B3B3B3" d="M327.9,16.757c0.294-0.192,1.16-0.731,0.943,0.314c0,0.104,0,0.209,0,0.313
			c-0.826-0.093-0.247,1.22-1.257,0.943c0-0.21,0-0.419,0-0.629c-0.508-0.089-0.541,0.297-0.942,0.314c0-0.104,0-0.21,0-0.314
			C327.285,17.606,327.26,16.849,327.9,16.757z"/>
		<path fill="#999999" d="M333.243,16.442c0.365-0.051,0.56,0.069,0.628,0.314c-0.54-0.017-0.805,0.242-0.942,0.628
			c-0.284,0.555-0.702,0.974-1.257,1.257c-0.555,0.284-0.973,0.703-1.258,1.258c-0.139,0.279-0.275,0.562-0.628,0.628
			c-1.507-0.11,0.671-0.94,0.628-1.571c0.268,0.058,0.297-0.122,0.314-0.314c0.865-0.601,1.6-1.334,2.2-2.199
			C333.033,16.442,333.139,16.442,333.243,16.442z"/>
		<path fill="#B1B1B1" d="M328.844,17.385c0-0.104,0-0.209,0-0.313c0.104,0,0.209,0,0.314,0c0.432-0.014,0.689,0.147,0.942,0.313
			c0.104,0,0.21,0,0.314,0c0.065,0.353,0.349,0.49,0.628,0.629c0.002,0.315-0.254,0.374-0.314,0.628
			c-0.018,0.192-0.046,0.372-0.313,0.314c-0.009-0.306-0.385-0.243-0.629-0.314c0.091-1.698-1.686,0.731-0.942,0.629
			c0.058,0.268-0.123,0.297-0.314,0.314c-0.535,0.115-0.594-0.245-0.629-0.629C327.969,18.367,329.733,17.896,328.844,17.385z"/>
		<path fill="#D0D0D0" d="M332.929,17.385c0.315,0.001,0.374-0.255,0.629-0.313c-0.111,0.412-0.554,0.493-0.629,0.942
			c-0.28,0.14-0.562,0.275-0.628,0.628c-1.03,0.542-1.485,1.658-2.515,2.2c0-0.104,0-0.209,0-0.314
			c0.353-0.066,0.489-0.349,0.629-0.628c0.554-0.284,0.974-0.703,1.257-1.258C332.226,18.358,332.645,17.939,332.929,17.385z"/>
		<path fill="#B0B0B0" d="M336.385,18.328c0.137-0.701,0.557-1.12,1.258-1.257c0.027,0.856-0.523,0.632,0,1.257
			c0,0.104,0,0.209,0,0.313c-0.21,0-0.42,0-0.629,0C337.006,18.336,336.629,18.398,336.385,18.328z"/>
		<path fill="#B0B0B0" d="M327.587,18.328c1.01,0.276,0.431-1.036,1.257-0.943c0.891,0.511-0.874,0.982-0.943,1.571
			c-0.104,0-0.209,0-0.313,0C327.587,18.747,327.587,18.537,327.587,18.328z"/>
		<path fill="#F8F8F8" d="M334.5,18.328c-0.129-0.396-0.405-0.643-0.943-0.629c-0.254,0.06-0.313,0.315-0.628,0.314
			c0.075-0.449,0.517-0.53,0.628-0.942c1.215,0.042,1.24,1.274,2.2,1.57c0.06,0.255,0.315,0.313,0.313,0.629
			c-0.104,0-0.209,0-0.313,0c-0.315,0.001-0.374-0.255-0.628-0.314C334.989,18.677,334.853,18.395,334.5,18.328z"/>
		<path fill="#B2B2B2" d="M340.156,18.014c-0.395,0.069-0.643,0.489-0.629-0.314c-0.716-0.432-1.182,0.811-1.257,0
			c0.372-0.152,0.713-0.335,0.942-0.628C339.666,17.247,339.98,17.562,340.156,18.014z"/>
		<path fill="#FAFAFA" d="M332.929,18.014c0.315,0.001,0.374-0.255,0.629-0.314c-0.284,0.555-0.704,0.974-1.257,1.257
			c0-0.104,0-0.209,0-0.314C332.367,18.289,332.648,18.153,332.929,18.014z"/>
		<path fill="#B0B0B0" d="M328.844,19.271c-0.743,0.103,1.033-2.327,0.942-0.629C329.249,18.628,328.973,18.875,328.844,19.271z"/>
		<path fill="#B2B2B2" d="M335.757,18.642c0.243-0.07,0.62-0.008,0.628-0.313c0.244,0.07,0.621,0.008,0.629,0.313
			c-0.014,0.434,0.148,0.69,0.314,0.943c-0.412-0.111-0.494-0.554-0.943-0.629c0.061,0.255,0.316,0.313,0.314,0.629
			c-0.254-0.06-0.313-0.315-0.629-0.314C336.072,18.955,335.816,18.896,335.757,18.642z"/>
		<path fill="#B5B5B5" d="M336.699,19.585c0.002-0.315-0.254-0.374-0.314-0.629c0.449,0.075,0.531,0.518,0.943,0.629
			c0.191,0.018,0.372,0.047,0.314,0.314c0,0.209,0,0.419,0,0.628C337.189,20.352,336.875,20.037,336.699,19.585z"/>
		<path fill="#B2B2B2" d="M328.844,19.271c0.129-0.396,0.405-0.643,0.942-0.629c0.244,0.071,0.62,0.009,0.629,0.314
			c-0.255,0.06-0.313,0.315-0.629,0.314C329.473,19.271,329.158,19.271,328.844,19.271z"/>
		<path fill="#ADADAD" d="M330.415,19.899c0.284-0.555,0.702-0.974,1.257-1.258C331.389,19.196,330.969,19.615,330.415,19.899z"/>
		<path fill="#EDEDED" d="M329.786,20.842c1.029-0.542,1.484-1.658,2.515-2.2c0,0.105,0,0.21,0,0.314
			c-1.03,0.542-1.485,1.658-2.515,2.2C329.786,21.052,329.786,20.946,329.786,20.842z"/>
		<path fill="#A0A0A0" d="M338.899,19.899c0.729-0.213,0.841-1.045,1.571-1.258c0,0.105,0,0.21,0,0.314
			c-0.73,0.213-0.842,1.044-1.571,1.257c0.39,0.769,0.913-0.941,1.571-0.942c0,0.104,0,0.209,0,0.314
			c-0.284,0.554-0.703,0.973-1.258,1.257c-0.209,0-0.418,0-0.628,0C338.496,20.334,338.882,20.301,338.899,19.899z"/>
		<path fill="#B2B2B2" d="M326.958,18.956c0.21,0,0.419,0,0.629,0c0.104,0,0.21,0,0.313,0c0.036,0.384,0.095,0.744,0.629,0.629
			c0.009,0.306,0.385,0.243,0.629,0.314c-0.166,0.252-0.328,0.51-0.314,0.942c-0.104,0-0.209,0-0.314,0
			c-0.412-0.111-0.494-0.554-0.942-0.629C327.424,19.748,327.121,19.422,326.958,18.956z"/>
		<path fill="#A6A6A6" d="M329.786,19.271c0.315,0.001,0.374-0.255,0.629-0.314c0.042,0.631-2.136,1.461-0.629,1.571
			c0,0.105,0,0.21,0,0.314c-0.313,0-0.628,0-0.942,0c-0.014-0.433,0.148-0.69,0.314-0.942
			C329.438,19.76,329.721,19.623,329.786,19.271z"/>
		<path fill="#999999" d="M340.471,19.271c-0.658,0.001-1.182,1.711-1.571,0.942c0.729-0.213,0.841-1.044,1.571-1.257
			C340.471,19.061,340.471,19.166,340.471,19.271z"/>
		<path fill="#AFAFAF" d="M328.844,19.271c0.314,0,0.629,0,0.942,0c-0.065,0.353-0.349,0.489-0.628,0.629
			c-0.244-0.071-0.62-0.009-0.629-0.314C328.721,19.567,328.901,19.538,328.844,19.271z"/>
		<path fill="#F6F6F6" d="M340.785,19.585c-0.139,0.909-0.662,1.433-1.572,1.571c0-0.104,0-0.21,0-0.314
			c0.555-0.284,0.974-0.703,1.258-1.257C340.575,19.585,340.68,19.585,340.785,19.585z"/>
		<path fill="#BFBFBF" d="M337.643,7.016c0.514-0.051,1.509,0.943,0.942,0.942c-0.314,0-0.628,0-0.942,0
			c-0.6,0.134-0.568,0.897-1.572,0.629c-0.438,0.4-0.136,1.539-0.941,1.571c-0.018-0.192-0.047-0.372-0.314-0.314
			c0.074-0.448,0.518-0.53,0.629-0.942c0.104,0,0.209,0,0.313,0c0.075-0.449,0.517-0.53,0.628-0.943
			C337.025,7.865,337.002,7.107,337.643,7.016z"/>
		<path fill="#BDBDBD" d="M330.415,9.844c0.425-0.099,0.601-0.447,1.257-0.314c-0.207,0.422-0.672,0.585-1.257,0.629
			C330.24,10.158,330.059,9.903,330.415,9.844z"/>
		<path fill="#FEFEFE" d="M333.243,10.472c-0.093-0.641-0.851-0.616-0.942-1.257"/>
		<path fill="#BFBFBF" d="M329.158,11.729c0.199-0.685-0.891-0.999,0.314-0.942c0.432,0.014,0.689-0.148,0.942-0.314
			c0.191,0.019,0.372,0.047,0.313,0.314c-0.594-0.07-0.693,0.354-1.256,0.314c-0.07,0.594,0.354,0.693,0.313,1.257
			C329.434,12.291,329.297,12.009,329.158,11.729z"/>
		<path fill="#BABABA" d="M332.929,11.415c-0.176-0.453-0.49-0.768-0.942-0.943c0.031-0.353-0.457-0.489,0-0.629
			c0.641,0.093,0.615,0.851,1.257,0.943c0,0.104,0,0.21,0,0.314c0.534-0.07,0.777,0.354,0,0.314
			C333.139,11.415,333.033,11.415,332.929,11.415z"/>
		<path fill="#C3C3C3" d="M331.986,10.472c0.452,0.177,0.767,0.491,0.942,0.943c-0.21,0-0.419,0-0.628,0
			c-0.434-0.014-0.691,0.147-0.943,0.314C330.969,10.712,332.374,11.488,331.986,10.472z"/>
		<path fill="#C7C7C7" d="M336.699,11.101c-0.035,0.383-0.094,0.744-0.629,0.628c0-0.209,0-0.419,0-0.628
			C336.424,11.133,336.561,10.644,336.699,11.101z"/>
		<path fill="#B9B9B9" d="M334.814,12.357c0.732,0,1.467,0,2.199,0c0,0.104,0,0.21,0,0.314c-0.104,0-0.209,0-0.314,0
			c-0.104,0-0.209,0-0.314,0c-0.314,0-0.628,0-0.941,0c-0.524,0-1.049,0-1.572,0c0-0.104,0-0.21,0-0.314
			C334.186,12.357,334.5,12.357,334.814,12.357z"/>
		<path fill="#B4B4B4" d="M333.871,12.672c0.523,0,1.048,0,1.572,0c-0.06,0.466-0.76,0.288-1.258,0.314
			C333.994,12.968,333.814,12.939,333.871,12.672z"/>
		<path fill="#B6B6B6" d="M330.729,13.929c0.071-0.244,0.01-0.62,0.314-0.629c0.07,0.245,0.264,0.365,0.629,0.314
			C331.619,13.98,331.176,13.955,330.729,13.929z"/>
		<path fill="#B5B5B5" d="M328.844,15.813c0.314-0.001,0.373,0.255,0.629,0.314c0.013,0.433-0.148,0.689-0.314,0.943
			c-0.105,0-0.21,0-0.314,0c0.217-1.046-0.65-0.507-0.943-0.314c0-0.315,0.255-0.374,0.314-0.629
			C328.53,16.129,328.589,15.874,328.844,15.813z"/>
		<path fill="#AFAFAF" d="M333.871,16.757c-0.069-0.245-0.263-0.365-0.629-0.314c0-0.21,0-0.419,0-0.629c0.211,0,0.42,0,0.629,0
			c0.018,0.402,0.402,0.436,0.314,0.943C334.081,16.757,333.977,16.757,333.871,16.757z"/>
		<path fill="#AFAFAF" d="M330.101,17.385c0.036-0.384,0.094-0.744,0.628-0.628c-0.07,0.243-0.008,0.619-0.313,0.628
			C330.311,17.385,330.205,17.385,330.101,17.385z"/>
		<path fill="#B1B1B1" d="M326.645,18.014c0.4-0.018,0.435-0.403,0.942-0.314c0,0.21,0,0.419,0,0.629c0,0.209,0,0.419,0,0.628
			c-0.21,0-0.419,0-0.629,0s-0.419,0-0.628,0C326.379,18.586,326.275,18.064,326.645,18.014z"/>
		<path fill="#FDFDFD" d="M334.5,18.328c0.353,0.066,0.489,0.349,0.629,0.628c-0.21,0-0.42,0-0.629,0
			C334.183,18.952,334.104,18.405,334.5,18.328z"/>
		<path fill="#B3B3B3" d="M337.643,18.328c1.35,0.225,0.086,2.243,0,0.313C337.643,18.537,337.643,18.433,337.643,18.328z"/>
		<path fill="#C4C4C4" d="M340.471,19.271c0-0.104,0-0.21,0-0.314s0-0.209,0-0.314c0-0.104,0-0.209,0-0.313
			c0.191,0.018,0.372,0.046,0.314,0.313c0,0.314,0,0.629,0,0.943c-0.105,0-0.21,0-0.314,0
			C340.471,19.479,340.471,19.375,340.471,19.271z"/>
		<path fill="#B2B2B2" d="M337.643,19.899c0.419,0,0.838,0,1.257,0c-0.018,0.401-0.403,0.435-0.314,0.942c0.21,0,0.419,0,0.628,0
			c0,0.104,0,0.21,0,0.314c-0.313,0-0.628,0-0.942,0c-0.003-0.415-0.55-0.287-0.628-0.629
			C337.643,20.318,337.643,20.108,337.643,19.899z"/>
		<path fill="#FCFCFC" d="M327.587,20.213c0.448,0.075,0.53,0.518,0.942,0.629c0,0.104,0,0.21,0,0.314"/>
		<path fill="#CDCDCD" d="M328.844,20.842c0.314,0,0.629,0,0.942,0c0,0.104,0,0.21,0,0.314c-0.419,0-0.838,0-1.257,0
			c0-0.104,0-0.21,0-0.314C328.635,20.842,328.738,20.842,328.844,20.842z"/>
		<path fill="#F2F2F2" d="M328.529,21.156c0.419,0,0.838,0,1.258,0c0,0.104,0,0.209,0,0.314c-0.42,0-0.839,0-1.258,0
			C328.529,21.365,328.529,21.261,328.529,21.156z"/>
		<path fill="#C4C4C4" d="M336.699,9.529c0.054,0.786-0.482,0.983-0.942,1.257c-0.019-0.191-0.047-0.372-0.313-0.314
			C335.938,10.232,335.912,9.476,336.699,9.529z"/>
		<path fill="#B3B3B3" d="M333.243,15.813c-2.044,2.011-0.431-1.827,0.942-0.628c0.019,0.191,0.047,0.372,0.314,0.314
			c0.359,1.329,0.186,0.743-0.629,0.313C333.662,15.813,333.453,15.813,333.243,15.813z"/>
	</g>
</g>
</svg>
